<svg width="1728" height="142" fill="none" xmlns="http://www.w3.org/2000/svg"><g clip-path="url(#clip0_715_36466)" fill="#fff"><ellipse cx="865.602" cy="224.589" rx="960.5" ry="187.858"/><path d="M1750.78 64.957c-.14-.037-.29-.067-.42-.098-41.64-9.869-93.04-10.313-137.42-15.09-12.27-1.325-24.57-3.506-37.4-4.78-20.09-1.986-55.79-9.96-77.03-6.115-3.64.654-4.23 2.769-8.43 3.547-10.38 1.913-26.85.526-37.62.705-32.49.535-74.07 1.53-105.5-2.85-8.04-1.121-9.26-2.084-15.38-4.31-13.96-5.073-28.25-8.419-45.08-10.591-49.54-6.39-94.66-5.07-144.31.061-30.12 3.112-60.52-1.735-90.2-3.882-38.99-2.82-79.019-3.075-116.204 4.855-28.201 6.017-52.386 7.801-83.419 6.302-41.325-1.993-83.041-13.274-124.654-11.063-.527.025-.772.367-.395.552.006 0 .012.005.017.01.332.165.189.461-.264.534-23.883 4.091-55.822 3.102-80.628 5.091-14.472 1.163-61.8 3.4-75.411 11.956-7.118 4.477-17.18 7.498-28.138 8.694-25.889 2.835-54.323 3.205-79.213 5.3-15.837 1.336-29.516 3.904-43.546 6.129-51.28 8.144-126.478-7.473-167.45 14.215-24.25 12.84-66.509 11.805-99.631 14.428-49.516 3.918-99.131 4.652-148.727 7.79-17.481 1.105-35.578 3.5-53.302 4.668l.326 21.582 122.83-1.858c4.57-1.029 8.824-2.287 12.626-3.85 5.319-2.191 6.818-4.772 11.388-6.903 12.557-5.845 35.239-4.176 50.325-4.159 24.87.033 49.454 2.099 74.338 1.946 6.572-.039 17.15.63 22.002-1.663 2.434-1.155 3.014-5.216 5.095-6.808 6.352-4.857 18.112-7.435 28.656-9.35 11.609-2.112 24.652-1.71 35.684-4.401 2.674-.657 3.014-2.206 5.197-2.735 16.749-4.088 39.87-4.89 57.943-6.249 23.3-1.754 46.916-3.998 70.287-4.744 29.045-.93 64.874-2.089 91.875 2.586.398.07.532.308.291.486-.034.028-.073.056-.107.084-5.521 4.185-.844 9.83 8.71 10.76 21.997 2.143 46.499 1.467 68.111 3.316 16.19 1.386 32.606 3.434 49.021 4.636 19.074 1.397 49.394 6.354 67.751 1.637 15.434-3.964 21.837-16.649 27.477-24.217 6.097-8.191 5.437-14.306 23.661-15.416 23.968-1.459 44.075 5.583 66.018 7.564 13.6 1.229 28.904-1.583 42.14-2.634 17.347-1.38 40.044-.185 52.436-8.265 10.802-7.04 5.236-7.693 29.137-7.558 31.537.172 63.197 4.547 93.137 8.834 18.5 2.649 37.95 4.509 57.08 6.57 22.91 2.468 55.2 9.386 79.18 5.598 10.86-1.718 18.91-7.3 28.86-10.008 12.39-3.378 31.96-3.358 45.71-2.682 19.02.934 38.39 4.982 55.71 8.734 8.52 1.84 22.59 5.544 32.44 4.086 3.82-.566 3-1.927 6.52-2.712 39.67-8.802 90.08-.828 129.92 3.091 16.82 1.66 33.26 3.8 50.35 4.714 8.17.433 16.3 1.526 24.48 2.308 6.93.664 13.93-.5 19.51-2.782 3.44-1.405 13.1-.226 17.41.21 18.03 1.839 35.01 6.583 51.26 11.24 7.12 2.042 36.36 9.426 63.49 13.722l21.5-.325-.16-10.518c-1.83-.916-3.33-1.88-4.39-2.879-4.14-3.924-3.33-12.793 4.1-16.255.17-.084.34-.157.52-.231.36-.147.3-.441-.11-.538l.02-.022z"/><path d="M-15.13 58.919c.133-.036.275-.067.407-.098 40.177-9.89 89.759-10.363 132.568-15.164 11.841-1.331 23.711-3.519 36.087-4.799 19.378-1.997 53.816-9.99 74.305-6.157 3.511.653 4.081 2.767 8.131 3.543 10.018 1.908 25.9.512 36.289.685 31.346.518 71.457 1.49 101.778-2.905 7.753-1.127 8.934-2.09 14.836-4.32 13.474-5.08 27.262-8.433 43.495-10.615 47.788-6.416 91.316-5.12 139.21-.015 29.058 3.095 58.378-1.768 87.017-3.931 37.606-2.84 76.225-3.118 112.092 4.793 27.201 6.002 50.53 7.773 80.468 6.257 39.866-2.015 80.113-13.318 120.254-11.129.509.024.745.366.381.551-.006 0-.011.006-.017.011-.32.164-.182.46.255.533 23.037 4.079 53.844 3.072 77.774 5.049 13.96 1.154 59.62 3.367 72.74 11.915 6.87 4.473 16.57 7.488 27.14 8.679 24.97 2.821 52.4 3.176 76.41 5.257 15.28 1.328 28.47 3.889 42.01 6.106 49.46 8.117 122.01-7.54 161.52 14.126 23.39 12.827 64.15 11.769 96.1 14.374 47.77 3.891 95.63 4.599 143.47 7.711 16.86 1.095 34.32 3.48 51.42 4.64l-.33 21.581-118.49-1.792c-4.41-1.027-8.51-2.283-12.18-3.844-5.13-2.188-6.57-4.768-10.98-6.896-12.11-5.84-33.99-4.157-48.54-4.132-23.99.046-47.71 2.125-71.71 1.986-6.34-.036-16.55.638-21.23-1.652-2.35-1.154-2.9-5.215-4.91-6.805-6.12-4.854-17.47-7.425-27.64-9.335-11.2-2.106-23.78-1.696-34.42-4.382-2.58-.656-2.9-2.204-5.01-2.732-16.16-4.079-38.46-4.869-55.89-6.218-22.48-1.741-45.26-3.973-67.8-4.707-28.02-.914-62.58-2.053-88.63 2.636-.39.07-.52.308-.28.486.03.028.07.056.1.084 5.32 4.182.81 9.83-8.41 10.764-21.22 2.155-44.85 1.492-65.7 3.353-15.62 1.394-31.46 3.451-47.3 4.662-18.4 1.407-47.647 6.38-65.353 1.673-14.886-3.955-21.056-16.636-26.493-24.202-5.877-8.188-5.237-14.303-22.817-15.403-23.12-1.446-42.52 5.607-63.689 7.6-13.12 1.235-27.882-1.568-40.65-2.612-16.732-1.371-38.628-.164-50.578-8.237-10.416-7.035-5.047-7.69-28.104-7.543-30.426.19-60.966 4.581-89.845 8.884-17.856 2.659-36.614 4.53-55.068 6.6-22.102 2.48-53.26 9.416-76.384 5.641-10.48-1.713-18.241-7.29-27.842-9.993-11.944-3.371-30.822-3.34-44.087-2.657-18.355.944-37.042 5.003-53.754 8.764-8.212 1.844-21.786 5.555-31.29 4.102-3.687-.563-2.889-1.925-6.288-2.707-38.263-8.782-86.897-.78-125.33 3.16-16.231 1.669-32.091 3.818-48.579 4.74-7.88.438-15.725 1.536-23.616 2.322-6.684.668-13.433-.493-18.819-2.772-3.318-1.403-12.638-.219-16.794.22-17.39 1.848-33.776 6.601-49.456 11.267-6.869 2.045-35.078 9.445-61.253 13.756l-20.734-.314.16-10.518c1.76-.917 3.214-1.882 4.231-2.881 4.001-3.926 3.227-12.795-3.942-16.253a7.07 7.07 0 00-.5-.23c-.349-.148-.295-.441.106-.54l-.021-.021z"/></g><defs><clipPath id="clip0_715_36466"><path fill="#fff" d="M0 0h1728v142H0z"/></clipPath></defs></svg>