<svg width="28" height="27" fill="none" xmlns="http://www.w3.org/2000/svg"><path d="M26.103.389c.8 0 1.333.533 1.333 1.333v18.667c0 .8-.533 1.333-1.333 1.333H6.77l-6 4.667V1.722c0-.8.533-1.333 1.333-1.333h24zm-13.334 6.8l-.533-.934c-2.4 1.067-4 3.067-4 5.467 0 1.333.4 2.133 1.067 2.933.4.4 1.066.8 1.866.8a2.39 2.39 0 002.4-2.4c0-1.2-.933-2.266-2.133-2.266h-.666v-.267c0-.533.133-2.133 2-3.333zm6-.934c-2.4 1.067-4 3.067-4 5.467 0 1.333.4 2.133 1.067 2.933.4.4 1.067.8 1.867.8a2.39 2.39 0 002.4-2.4c0-1.2-.934-2.266-2.134-2.266h-.666c0-.4 0-2.4 2.133-3.6l-.666-.934z" fill="#FFA437"/></svg>