<svg width="18" height="18" fill="none" xmlns="http://www.w3.org/2000/svg"><path fill-rule="evenodd" clip-rule="evenodd" d="M1.521 8.438A7.5 7.5 0 019.001 1.5c-.623 0-1.178.273-1.635.69-.454.416-.838.997-1.148 1.682-.312.69-.555 1.497-.719 2.373a14.816 14.816 0 00-.238 2.192H1.52zm0 1.124h3.74c.026.752.106 1.492.238 2.193.164.876.407 1.683.719 2.373.31.685.694 1.266 1.148 1.681.457.418 1.012.691 1.635.691a7.5 7.5 0 01-7.48-6.938z" fill="#0F0F0F"/><path d="M9 2.547c-.206 0-.472.087-.782.37-.312.286-.624.734-.9 1.344-.275.606-.497 1.337-.65 2.155a13.87 13.87 0 00-.222 2.021h5.11a13.871 13.871 0 00-.222-2.021c-.153-.818-.376-1.55-.65-2.155-.276-.61-.589-1.058-.9-1.343-.31-.284-.577-.371-.783-.371zm-2.333 9.037c.154.818.376 1.55.65 2.155.277.61.589 1.058.901 1.343.31.284.576.371.783.371.206 0 .472-.087.782-.37.312-.286.625-.734.9-1.344.275-.606.498-1.337.651-2.155.12-.643.196-1.326.222-2.021h-5.11c.026.695.1 1.378.221 2.021z" fill="#0F0F0F"/><path d="M9 1.5c.624 0 1.179.273 1.635.69.454.416.838.997 1.148 1.682.313.69.555 1.497.72 2.373.131.701.211 1.441.238 2.192h3.739A7.5 7.5 0 009 1.5zm3.502 10.255c-.164.876-.406 1.683-.719 2.373-.31.685-.694 1.266-1.148 1.681-.456.418-1.011.691-1.634.691a7.5 7.5 0 007.479-6.938h-3.74a14.816 14.816 0 01-.238 2.193z" fill="#0F0F0F"/></svg>