<svg width="16" height="19" fill="none" xmlns="http://www.w3.org/2000/svg"><path d="M12.375 5.875h3.375v9.563a2.798 2.798 0 01-2.813 2.812H2.813A2.777 2.777 0 010 15.437V5.876h3.375V4.75c0-2.46 2.004-4.5 4.5-4.5 2.46 0 4.5 2.04 4.5 4.5v1.125zM5.625 4.75v1.125h4.5V4.75c0-1.23-1.02-2.25-2.25-2.25a2.243 2.243 0 00-2.25 2.25zm5.625 4.219a.833.833 0 00.844-.844.856.856 0 00-.844-.844.833.833 0 00-.844.844c0 .492.352.844.844.844zm-6.75 0a.833.833 0 00.844-.844.855.855 0 00-.844-.844.833.833 0 00-.844.844c0 .492.352.844.844.844z" fill="#090C11"/></svg>