<svg width="1728" height="77" fill="none" xmlns="http://www.w3.org/2000/svg"><g clip-path="url(#clip0_716_37482)" fill="#fff"><path d="M1740.55 60.787c-.13.022-.28.04-.42.059-41.61 6.032-93.01 6.207-137.37 9.08-12.27.797-24.57 2.124-37.39 2.888-20.08 1.191-55.76 6.06-77.01 3.639-3.64-.413-4.24-1.724-8.44-2.214-10.39-1.205-26.85-.377-37.61-.51-32.5-.394-74.08-1.09-105.5 1.561-8.03.68-9.25 1.274-15.36 2.64-13.96 3.115-28.24 5.16-45.06 6.473-49.51 3.861-94.64 2.956-144.3-.317-30.13-1.986-60.51.957-90.19 2.23-38.97 1.67-79.005 1.751-116.209-3.232-28.216-3.781-52.404-4.933-83.433-4.064-41.318 1.154-83.002 8.06-124.62 6.61-.527-.016-.773-.228-.396-.342a.032.032 0 00.017-.007c.332-.1.188-.285-.265-.33-23.893-2.58-55.829-2.03-80.639-3.31-14.474-.748-61.806-2.225-75.439-7.55-7.129-2.787-17.199-4.677-28.159-5.44-25.895-1.805-54.329-2.09-79.223-3.435-15.84-.858-29.525-2.475-43.561-3.88-51.298-5.143-126.453 4.384-167.48-9.128-24.283-7.999-79.027-29.047-112.155-30.736C80.813 18.95 31.198 18.4-18.404 16.36c-17.483-.718-35.586-2.237-53.312-2.994L-71.446 0l122.83 1.388c4.573.646 8.83 1.434 12.636 2.41 5.324 1.367 6.83 2.968 11.406 4.296 12.571 3.645 35.248 2.655 50.333 2.674 24.869.027 61.937 20.403 86.821 20.546 6.572.037 17.147-.357 22.005 1.073 2.437.72 3.028 3.236 5.113 4.226 6.364 3.02 18.13 4.64 28.679 5.846 11.614 1.33 24.655 1.106 35.694 2.795 2.676.412 3.02 1.372 5.204 1.704 16.759 2.564 39.881 3.105 57.957 3.982 23.303 1.131 46.924 2.567 70.297 3.074 29.045.632 64.876 1.419 91.864-1.424.398-.043.531-.19.289-.3-.033-.018-.073-.035-.106-.053-5.532-2.602-.87-6.09 8.682-6.647 22.658 7 47.161 7.466 68.767 6.363 16.186-.827 32.597-2.064 49.008-2.777 19.069-.828 49.375-3.84 67.743-.883 15.444 2.485 21.879 10.354 27.539 15.052 6.118 5.085 4.805.586 23.032 1.309 23.971.95 44.059-3.373 65.996-4.557 13.596-.735 28.907 1.036 42.145 1.712 17.349.889 40.043.193 52.455 5.22 10.82 4.382 5.256 4.775 29.156 4.738 31.54-.045 63.181-2.694 93.101-5.291 18.51-1.605 37.94-2.72 57.07-3.959 22.9-1.484 55.18-5.706 79.16-3.314 10.87 1.086 18.93 4.558 28.89 6.255 12.39 2.116 31.96 2.14 45.71 1.75 19.02-.543 38.38-3.012 55.69-5.303 8.51-1.123 22.57-3.39 32.43-2.467 3.82.357 3 1.2 6.52 1.692 39.69 5.528 90.08.687 129.91-1.663 16.82-.996 33.25-2.29 50.34-2.822 8.17-.253 16.3-.914 24.47-1.382 6.93-.398 13.93.336 19.52 1.76 3.44.877 13.1.165 17.41-.097 18.02-1.103 34.99-4.009 51.23-6.861 7.11-1.25 36.33-5.768 63.45-8.376l21.49.243-.13 6.514c-1.82.564-3.33 1.158-4.38 1.774-4.13 2.423-3.3 7.917 4.14 10.075.17.053.34.099.52.145.36.092.31.273-.11.333l.02.014z"/><path d="M-20.352 59.585c.132.024.275.044.407.065 40.16 6.572 89.74 6.829 132.541 9.991 11.839.877 23.705 2.327 36.079 3.17 19.374 1.313 53.799 6.621 74.293 4.032 3.512-.441 4.085-1.857 8.137-2.38 10.02-1.289 25.9-.374 36.288-.502 31.347-.383 71.459-1.081 101.772 1.824 7.751.745 8.93 1.389 14.829 2.873 13.466 3.384 27.247 5.612 43.477 7.052 47.777 4.238 91.306 3.319 139.207-.153 29.062-2.106 58.374 1.114 87.009 2.528 37.601 1.856 76.218 1.996 112.096-3.34 27.211-4.049 50.542-5.261 80.477-4.282 39.861 1.301 80.09 8.817 120.234 7.305.509-.017.745-.246.381-.37-.005.001-.011-.003-.016-.006-.32-.11-.182-.308.255-.357 23.043-2.757 53.856-2.12 77.786-3.47 13.96-.79 59.62-2.324 72.75-8.06 6.87-3.001 16.58-5.03 27.16-5.84 24.97-1.917 52.4-2.187 76.41-3.608 15.28-.907 28.48-2.636 42.02-4.136 49.47-5.49 121.99 4.903 161.54-9.643 23.41-8.611 64.17-7.952 96.12-9.733 45.53-12.805 93.39-13.335 141.23-15.474 16.87-.753 34.33-2.37 51.42-3.165l-.29-14.442-118.49 1.339c-4.41.692-8.51 1.538-12.18 2.587-5.13 1.47-6.58 3.198-10.99 4.628-12.12 3.921-36.14 9.053-50.7 9.053-23.99-.002-45.45 8.779-67.31 2.67-6.34.03-16.55-.409-21.23 1.13-2.35.774-2.91 3.493-4.92 4.56-6.13 3.255-17.48 4.989-27.65 6.279-11.2 1.422-23.78 1.163-34.43 2.973-2.58.441-2.91 1.478-5.02 1.834-16.16 2.748-38.46 3.303-55.9 4.227-22.47 1.192-45.26 2.712-67.8 3.23-28.02.645-59.52 11.446-85.57 8.34-.38-.048-.51-.207-.28-.326.04-.019.07-.038.11-.056 5.33-2.805.82-6.579-8.39-7.194-21.22-1.417-44.86-.945-65.7-2.166-15.62-.915-31.45-2.272-47.29-3.064-18.39-.92-47.636-4.214-65.349-1.043-14.893 2.665-21.083 11.158-26.532 16.227-5.889 5.487-8.319-.42-25.9.337-23.122.995-42.511-3.702-63.676-5.01-13.118-.812-27.883 1.081-40.653 1.795-16.734.937-38.628.155-50.59 5.572-10.427 4.72-5.059 5.152-28.115 5.08-30.426-.09-60.957-2.993-89.829-5.838-17.851-1.759-36.606-2.988-55.056-4.353-22.097-1.633-53.244-6.238-76.373-3.684-10.483 1.158-18.253 4.9-27.858 6.72-11.949 2.27-30.826 2.272-44.09 1.83-18.353-.61-37.034-3.304-53.739-5.801-8.21-1.225-21.777-3.692-31.283-2.709-3.688.381-2.892 1.292-6.292 1.82-38.276 5.921-86.896.624-125.322-1.967-16.228-1.098-32.085-2.517-48.571-3.116-7.879-.283-15.722-1.008-23.611-1.525-6.683-.439-13.434.345-18.823 1.877-3.321.943-12.638.161-16.794-.127-17.386-1.216-33.765-4.378-49.437-7.482-6.866-1.36-35.062-6.279-61.23-9.133l-20.734.234.142 7.04c1.76.61 3.212 1.255 4.228 1.922 3.995 2.623 3.206 8.559-3.968 10.88a9.009 9.009 0 01-.501.156c-.348.099-.295.295.106.36l-.022.015z"/><path d="M1219 54h467v107h-467z"/><path d="M1684 9h117v107h-117z"/><path d="M1569 23h117v107h-117z"/><path d="M1544 29h117v107h-117z"/><path d="M1452 29h117v107h-117z"/><path d="M1411 43h117v107h-117zM-30 54h519v54H-30z"/><path d="M124 46h124v53H124z"/><path d="M100 33h124v53H100z"/><path d="M62 27h124v53H62z"/><path d="M38 19h124v53H38z"/><path d="M-62 7H62v53H-62z"/></g><defs><clipPath id="clip0_716_37482"><path fill="#fff" d="M0 0h1728v77H0z"/></clipPath></defs></svg>