<svg width="489" height="362" fill="none" xmlns="http://www.w3.org/2000/svg"><g opacity=".8"><path fill-rule="evenodd" clip-rule="evenodd" d="M472.379 342.134c8.571-.354 15.338-7.407 15.338-15.986V79.786c0-8.255-6.282-15.156-14.501-15.93l-36.015-3.388L452.566 6.1c.973-3.441-2.715-6.332-5.824-4.566l-90.381 51.328L49.496 23.988c-8.752-.823-16.529 5.568-17.417 14.313L1.083 343.354c-.985 9.692 6.847 18.007 16.58 17.604l454.716-18.824z" fill="#fff"/><path d="M472.379 342.134l.02.5-.02-.5zm.837-278.277l-.047.498.047-.498zm-36.015-3.389l-.481-.136-.163.578.598.056.046-.498zM452.566 6.1l-.481-.136.481.136zm-5.824-4.566l.247.435-.247-.435zm-90.381 51.328l-.047.498.157.014.137-.078-.247-.434zM49.496 23.988l.046-.497-.046.497zM32.079 38.301l-.498-.05.498.05zM1.083 343.354l.497.05-.497-.05zm16.58 17.604l.02.499-.02-.499zm469.554-34.81c0 8.311-6.555 15.143-14.859 15.487l.041.999c8.84-.366 15.818-7.639 15.818-16.486h-1zm0-246.362v246.362h1V79.786h-1zm-14.048-15.431c7.963.749 14.048 7.433 14.048 15.431h1c0-8.514-6.478-15.63-14.955-16.427l-.093.996zm-36.014-3.39l36.014 3.39.093-.996-36.014-3.389-.093.996zm14.93-55L436.72 60.331l.963.272 15.364-54.368-.962-.272zm-5.096-3.996c2.721-1.545 5.947.984 5.096 3.995l.962.272c1.094-3.871-3.054-7.123-6.552-5.137l.494.87zm-90.381 51.328l90.381-51.328-.494-.87-90.381 51.328.494.87zm-307.16-28.81L356.315 53.36l.093-.996L49.542 23.491l-.093.995zM32.577 38.35c.86-8.471 8.395-14.662 16.873-13.865l.093-.995c-9.025-.85-17.044 5.74-17.96 14.76l.994.1zM1.58 343.404L32.576 38.351l-.995-.1L.586 343.302l.994.101zm16.062 17.054c-9.429.39-17.016-7.665-16.062-17.054l-.994-.101c-1.016 9.995 7.06 18.57 17.098 18.154l-.042-.999zm454.716-18.823L17.642 360.458l.042.999 454.715-18.823-.041-.999z" fill="#FFA437"/></g></svg>