<svg width="514" height="370" fill="none" xmlns="http://www.w3.org/2000/svg"><path fill-rule="evenodd" clip-rule="evenodd" d="M17.234 368.963c-9.508.138-17.037-7.997-16.165-17.466L26.098 79.754c.758-8.233 7.664-14.532 15.932-14.532h37.265L62.587 6.1c-.973-3.442 2.715-6.332 5.825-4.566l112.144 63.687h270.42a16 16 0 0115.764 13.262l45.989 264.773c1.684 9.692-5.695 18.594-15.531 18.737l-479.964 6.969z" fill="#fff" fill-opacity=".8"/><path d="M1.069 351.497l-.498-.046.498.046zm16.165 17.466l.007.5-.007-.5zm8.864-289.209l-.498-.046.498.046zm53.197-14.532l.481-.136.18.636h-.661v-.5zM62.587 6.1l.481-.136-.481.136zm5.825-4.566l-.247.434.246-.434zm112.144 63.687v.5h-.132l-.115-.066.247-.434zM466.74 78.484l-.493.085.493-.085zm45.989 264.773l-.492.086.492-.086zm-15.531 18.737l.007.5-.007-.5zM1.567 351.543c-.845 9.173 6.449 17.054 15.66 16.92l.014 1c-9.805.142-17.57-8.247-16.67-18.012l.996.092zM26.596 79.8L1.566 351.543l-.995-.092L25.6 79.708l.996.092zM42.03 65.722c-8.01 0-14.7 6.102-15.434 14.078l-.996-.092c.782-8.49 7.904-14.986 16.43-14.986v1zm37.265 0H42.03v-1h37.265v1zM63.068 5.965l16.708 59.12-.962.273L62.106 6.236l.962-.272zm5.097-3.996c-2.721-1.545-5.948.984-5.097 3.996l-.962.272C61.012 2.365 65.16-.887 68.658 1.1l-.493.87zm112.144 63.687L68.165 1.97l.493-.87 112.145 63.688-.494.87zm270.667.066h-270.42v-1h270.42v1zm15.271 12.847a15.5 15.5 0 00-15.271-12.847v-1a16.5 16.5 0 0116.256 13.676l-.985.171zm45.99 264.774l-45.99-264.774.985-.171 45.99 264.774-.985.171zm-15.047 18.151c9.529-.139 16.677-8.762 15.047-18.151l.985-.171c1.736 9.995-5.874 19.174-16.017 19.322l-.015-1zm-479.964 6.969l479.964-6.969.015 1-479.964 6.969-.015-1z" fill="#FFA437"/></svg>