<svg width="14" height="15" fill="none" xmlns="http://www.w3.org/2000/svg"><g clip-path="url(#clip0_504_10864)" fill="#000"><path d="M9.44 11.904a5.45 5.45 0 01-2.476.925c.5-.459.953-.967 1.35-1.517a2.47 2.47 0 01-.432.043c-.047 0-.092-.005-.138-.008-.357.453-.752.874-1.181 1.26v-1.631a3.13 3.13 0 01-.438-.28v1.887a10.426 10.426 0 01-1.55-1.983c.43-.068.863-.11 1.297-.125a2.744 2.744 0 01-.348-.423c-.395.026-.787.073-1.176.142a6.694 6.694 0 01-.78-2.575H5.21c.052-.151.116-.298.191-.438h-1.85a5.597 5.597 0 01.675-2.625c.626.118 1.261.187 1.899.205v1.526a2.76 2.76 0 01.438-.29V4.766a11 11 0 001.775-.161c.208.393.381.805.517 1.23.184.065.36.15.527.251a7.611 7.611 0 00-.592-1.571 10.234 10.234 0 001.789-.57 5.443 5.443 0 011.228 3.237h-1.418c.074.14.136.287.186.438h1.23a5.425 5.425 0 01-.618 2.317l.321.322a5.884 5.884 0 00-.704-6.723l-.014-.016a5.894 5.894 0 00-8.917.028 5.893 5.893 0 00.005 7.715l.009.01.002.002a5.891 5.891 0 007.864.943l-.312-.313zm.831-8.304a9.853 9.853 0 01-1.695.516 10.532 10.532 0 00-1.645-2.153A5.456 5.456 0 0110.27 3.6zM6.563 2.217a10.433 10.433 0 011.549 1.984c-.513.08-1.03.124-1.55.129V2.217zm-.438 2.109a11.63 11.63 0 01-1.67-.17 9.143 9.143 0 011.67-1.963v2.133zm-.398-2.36a9.334 9.334 0 00-1.73 2.099 10.846 10.846 0 01-1.58-.465 5.456 5.456 0 013.31-1.633zm-3.62 1.981c.543.217 1.102.39 1.673.516a5.991 5.991 0 00-.666 2.718H.881a5.442 5.442 0 011.226-3.234zM.885 7.62H3.13c.078.93.34 1.836.772 2.665-.613.135-1.212.326-1.79.57A5.446 5.446 0 01.885 7.619zm1.531 3.583a9.906 9.906 0 011.7-.518 10.68 10.68 0 001.643 2.153 5.46 5.46 0 01-3.343-1.635z"/><path d="M13.305 12.675L10.831 10.2a.221.221 0 00-.31 0l-.212-.212-.317-.317c.063-.104.114-.213.153-.327a2.483 2.483 0 00-.394-2.359 2.388 2.388 0 00-2.084-.876 2.428 2.428 0 00-1.992 3.324 2.6 2.6 0 001.86 1.446c.524.085 1.06-.02 1.514-.295l.543.544a.221.221 0 000 .308l2.476 2.477a.876.876 0 001.237-1.24zM7.6 10.447a1.964 1.964 0 111.535-3.463 2.034 2.034 0 01.686 1.893 1.813 1.813 0 01-.355.783c-.495.528-1.111.9-1.866.787zm2.126-.423l.485.486c-.104.103-.208.205-.31.31l-.485-.487a9.06 9.06 0 00.31-.31zm3.15 3.666a.451.451 0 01-.514-.1l-2.305-2.306.62-.62 2.318 2.32a.442.442 0 01-.118.706z"/></g><defs><clipPath id="clip0_504_10864"><path fill="#fff" transform="translate(0 .619)" d="M0 0h14v14H0z"/></clipPath></defs></svg>