<svg width="14" height="14" fill="none" xmlns="http://www.w3.org/2000/svg"><path fill-rule="evenodd" clip-rule="evenodd" d="M4.083 1.02c.241 0 .437.196.437.438v.445a68.81 68.81 0 011.28-.007h2.399c.468 0 .893 0 1.28.007v-.445a.437.437 0 11.875 0v.482c.151.012.295.027.43.045.684.092 1.238.286 1.675.722.436.437.63.99.722 1.674.03.219.049.457.062.717a.438.438 0 01.011.268c.016.468.016 1 .016 1.6V8.2c0 1.072 0 1.921-.09 2.586-.091.684-.285 1.237-.721 1.674-.437.437-.99.63-1.674.722-.665.09-1.514.09-2.586.09h-2.4c-1.071 0-1.92 0-2.585-.09-.684-.092-1.237-.285-1.674-.722-.436-.437-.63-.99-.722-1.674-.09-.665-.09-1.514-.09-2.586V6.967c0-.602 0-1.133.016-1.6a.438.438 0 01.012-.269c.013-.26.032-.498.062-.717.092-.684.286-1.237.722-1.674.437-.436.99-.63 1.674-.722a7.55 7.55 0 01.431-.045v-.482c0-.242.196-.437.438-.437zM1.61 5.688c-.007.38-.007.814-.007 1.313v1.166c0 1.113 0 1.903.081 2.502.079.587.227.925.474 1.172.247.247.585.395 1.172.474.6.08 1.39.082 2.502.082h2.333c1.112 0 1.902-.001 2.502-.082.587-.079.925-.227 1.172-.474.247-.247.395-.585.474-1.172.08-.6.081-1.39.081-2.502V7c0-.498 0-.932-.008-1.313H1.611zm10.736-.875H1.652c.01-.11.02-.215.034-.314.079-.587.227-.925.474-1.172.247-.247.585-.395 1.172-.474.6-.08 1.39-.081 2.502-.081h2.333c1.112 0 1.902 0 2.502.081.587.079.925.227 1.172.474.247.247.395.585.474 1.172.013.1.024.204.034.314z" fill="url(#paint0_linear_504_7194)"/><defs><linearGradient id="paint0_linear_504_7194" x1=".729" y1="1.02" x2=".728" y2="13.271" gradientUnits="userSpaceOnUse"><stop stop-color="#FCBC5D"/><stop offset="1" stop-color="#F27243"/></linearGradient></defs></svg>