<svg width="14" height="14" fill="none" xmlns="http://www.w3.org/2000/svg"><path fill-rule="evenodd" clip-rule="evenodd" d="M4.083 1.021c.241 0 .437.196.437.438v.444a68.81 68.81 0 011.28-.007h2.399c.468 0 .893 0 1.28.007v-.445a.437.437 0 11.875 0v.483c.151.012.295.026.43.044.684.092 1.238.286 1.675.723.436.436.63.99.722 1.674.03.218.049.457.062.717a.438.438 0 01.011.268c.016.468.016.999.016 1.6V8.2c0 1.072 0 1.92-.09 2.585-.091.684-.285 1.238-.721 1.674-.437.437-.99.63-1.674.723-.665.089-1.514.089-2.586.089h-2.4c-1.071 0-1.92 0-2.585-.09-.684-.091-1.237-.285-1.674-.722-.436-.436-.63-.99-.722-1.674-.09-.664-.09-1.513-.09-2.585V6.967c0-.601 0-1.132.016-1.6a.438.438 0 01.012-.268c.013-.26.032-.499.062-.717.092-.684.286-1.238.722-1.674.437-.437.99-.63 1.674-.723.136-.018.28-.032.431-.044v-.483c0-.241.196-.437.438-.437zM1.61 5.688c-.007.38-.007.814-.007 1.312v1.167c0 1.112 0 1.902.081 2.502.079.587.227.925.474 1.172.247.247.585.395 1.172.474.6.08 1.39.081 2.502.081h2.333c1.112 0 1.902 0 2.502-.082.587-.078.925-.226 1.172-.473.247-.247.395-.585.474-1.172.08-.6.081-1.39.081-2.502V7c0-.498 0-.932-.008-1.312H1.611zm10.736-.875H1.652c.01-.11.02-.215.034-.315.079-.587.227-.925.474-1.172.247-.247.585-.395 1.172-.473.6-.081 1.39-.082 2.502-.082h2.333c1.112 0 1.902 0 2.502.082.587.078.925.226 1.172.473.247.247.395.585.474 1.172.013.1.024.204.034.315z" fill="#B589BC"/></svg>