<svg width="36" height="36" fill="none" xmlns="http://www.w3.org/2000/svg"><path fill-rule="evenodd" clip-rule="evenodd" d="M15.605 33.72l.413-.697c.661-1.118.992-1.676 1.518-1.988.527-.311 1.214-.333 2.588-.377 1.289-.041 2.155-.154 2.895-.46a6.361 6.361 0 003.443-3.443c.484-1.17.484-2.651.484-5.615v-1.273c0-4.165 0-6.247-.938-7.777a6.362 6.362 0 00-2.1-2.1c-1.53-.937-3.612-.937-7.777-.937h-3.816c-4.165 0-6.248 0-7.777.937a6.362 6.362 0 00-2.1 2.1C1.5 13.62 1.5 15.702 1.5 19.867v1.273c0 2.964 0 4.446.484 5.615a6.362 6.362 0 003.443 3.443c.74.306 1.606.419 2.895.46 1.374.044 2.06.066 2.587.377.527.312.857.87 1.519 1.988l.412.696c.615 1.04 2.15 1.04 2.765 0zm4.184-11.944a1.59 1.59 0 100-3.181 1.59 1.59 0 000 3.18zm-3.976-1.59a1.59 1.59 0 11-3.18 0 1.59 1.59 0 013.18 0zm-7.156 1.59a1.59 1.59 0 100-3.181 1.59 1.59 0 000 3.18z" fill="#fff"/><path opacity=".5" d="M23.228 1.5c1.9 0 3.412 0 4.623.115 1.243.118 2.294.366 3.23.94.963.59 1.772 1.4 2.363 2.362.573.936.82 1.987.939 3.23.115 1.212.115 2.723.115 4.623v1.298c0 1.352 0 2.428-.06 3.3-.06.893-.187 1.66-.485 2.377a7.156 7.156 0 01-4.005 3.926c-.212.08-.393.15-.552.201H26.92c.024-.748.024-1.64.024-2.732v-1.273c0-4.165 0-6.247-.938-7.777a6.363 6.363 0 00-2.1-2.1c-1.53-.937-3.612-.937-7.777-.937h-3.816c-1.479 0-2.694 0-3.716.042V6.619c.049-.17.116-.365.195-.594.134-.389.304-.757.519-1.108a7.157 7.157 0 012.362-2.362c.936-.574 1.987-.822 3.23-.94 1.212-.115 2.723-.115 4.623-.115h3.701z" fill="#fff"/></svg>