<svg width="24" height="24" fill="none" xmlns="http://www.w3.org/2000/svg"><path d="M24 12c0-6.627-5.373-12-12-12S0 5.373 0 12s5.373 12 12 12 12-5.373 12-12z" fill="url(#paint0_linear_504_9811)"/><path opacity=".1" d="M21.031 4.106c-1.749 3.211-4.223 6.524-7.315 9.615-3.091 3.092-6.404 5.561-9.61 7.31a11.427 11.427 0 01-.587-.546 12 12 0 1116.966-16.97c.19.19.372.386.546.59z" fill="#fff"/><path d="M14.841 5.684H9.157a3.474 3.474 0 00-3.473 3.473v5.684a3.474 3.474 0 003.473 3.474h5.684a3.474 3.474 0 003.474-3.474V9.157a3.474 3.474 0 00-3.474-3.473zm2.369 8.658a2.868 2.868 0 01-2.868 2.868H9.656a2.867 2.867 0 01-2.867-2.868V9.656A2.867 2.867 0 019.656 6.79h4.686a2.868 2.868 0 012.868 2.867v4.686z" fill="#fff"/><path d="M14.303 9.718l-.03-.03-.025-.025a3.183 3.183 0 00-2.249-.929 3.24 3.24 0 00-3.218 3.264c0 .864.34 1.693.948 2.307a3.189 3.189 0 002.277.947 3.273 3.273 0 002.297-5.534zm-2.304 4.421A2.14 2.14 0 1114.11 12 2.124 2.124 0 0112 14.14zm4.173-5.553a.77.77 0 01-1.058.718.779.779 0 01.294-1.492c.178 0 .351.063.488.177l.016.016c.025.02.049.044.07.07l.017.019a.773.773 0 01.173.492z" fill="#fff"/><defs><linearGradient id="paint0_linear_504_9811" x1="3.515" y1="3.515" x2="20.485" y2="20.485" gradientUnits="userSpaceOnUse"><stop stop-color="#FAE100"/><stop offset=".15" stop-color="#FCB720"/><stop offset=".3" stop-color="#FF7950"/><stop offset=".5" stop-color="#FF1C74"/><stop offset="1" stop-color="#6C1CD1"/></linearGradient></defs></svg>