<svg width="15" height="15" fill="none" xmlns="http://www.w3.org/2000/svg"><path d="M13.809 12.863c.246.274.246.684-.028.93l-.765.766c-.246.273-.657.273-.93 0l-2.707-2.707a.64.64 0 01-.191-.465v-.465a5.651 5.651 0 01-3.5 1.203A5.683 5.683 0 010 6.437C0 3.32 2.543.75 5.688.75c3.117 0 5.687 2.57 5.687 5.688 0 1.34-.465 2.542-1.203 3.5h.437c.164 0 .329.082.465.19l2.735 2.735zM5.688 9.938c1.914 0 3.5-1.56 3.5-3.5 0-1.915-1.586-3.5-3.5-3.5a3.507 3.507 0 00-3.5 3.5 3.49 3.49 0 003.5 3.5z" fill="#090C11"/></svg>