<svg width="1728" height="659" fill="none" xmlns="http://www.w3.org/2000/svg"><g style="mix-blend-mode:multiply"><path d="M1424.36 147.585c10.33-4.622-10.43-9.317-24.05-5.876-20.71 1.581-.2-8.922-5.51-11.909-13.65-3.691 4.7-8.208 12.33-13.89-4.87 7.053-1.78 11.785 22.95 10.95 1.45-3.774-27.68-1.03-14.41-6.912 19.07 2.166 12.71-.052 13.97-3.815 18.43-1.755 22.52 5.177 41.5 3.88-15.06 10.276 5.43 4.596-5.02 11.784 15.21-1.197 5.97 1.942 14.39 2.737-5.66-3.106-2.49-6.01-4.07-9.615 4.17-10.093-32.12-8.367-25.11-19.085 115.35-9.713 97.69-25.573 94.37-27.195 31.67-6.366 101.31-34.114 87.88-17.951 17.81-1.06 24.39-.903 14.85 5.632 6.85-.532 11.4-1.886 13.65-4.063 20.44-5.901 63.1 4.03 39.72 5.888 27.98 4.378-24.43 18.588-38.85 26.651 26.28-.2 29.18-5.635 30.48-9.553 17.87 6.837 65.02-7.091 72.02 1.68 54.6 5.18 33.19-13.24 65.55-6.79 15.22-2.857 28.65.56 25.74 5.243 1.49 3.033 82.83-5.053 106.88-10.561-13.91-3.602 28.46-1.453 39.47-2.4-26.83 5.058 19.26-.231-3.41 7.246 56.58-24.263 24.46 12.104 121.96-5.406 32-.697 10.7 11.005 45.06 11.572 10.87-10.699 49.67-1.629 56.81-12.384 20.56-2.645 18.06 2.378 22.17-2.852 48.93-4.708 138.44-3.003 153.14 7.958 22.96 4.363-11.65-13.516 44.97-5.389-4.98 2.967 4.6 6.612-15.66 9.13 10.47 2.043-1.66 6.962 7.8 8.556-9.26 9.546-62.19 6.428-62.42 9.486-1.62 7.391-13.2 16.294-70.06 49.165-5.33 7.84-24.36-6.177-44.66 7.115-1.48-6.197-8.3 1.022-23.28 1.119-7.3 4.388 6.02 12.42-1.34 18.441-10.42 3.752 19.17 8.312-5.84 9.223-9.99 4.378-4.43 7.185-.51 10.148-29.57 2.999-13.03 9.41-34.88 13.433-30.17 33.607-60.06-29.472 37.96-56.949 5.57-24.292 3.63-14.259-28.2 2.103-10.35-.94-7.22-4.027-4.16-7.191-12.67 1.724-33.77.864-38.32 6.247-4.86 6.08-27.45 12.741-11.76 15.126-7.4 1.366-47.59 7.766-26.41 1.716-67.69-6.04-154.25 38.348-148.79 38.406 3.94 13.05 26.79-3.502 37.43 3.496 22.42 15.289-20.42 43.205-74.9 60.522-15.74 4.423-32.16-2.739-51.1 9.086-56.26 20.13 25.76 29.23-49.99 33.899-4.59-4.407 22.96-14.632-1.15-14.596-9.76-3.14 17.63-16.063-32.72-5.545-3.16-2.957-26.22 1.406-44.26 1.53-8.61 13.816 52.49.145 42.65 8.648-75.91 5.602 5.98 21.184-40.49 29.841 32.9 3.952-68.19 36.006-96.45 31.055-10.78 5.435-37.71 2.647-40.76 8.366-7.52-5.326-27.34-5.449-48.73 3.167-5.34 19.004 58.94 21.385-51.63 40.084 15.45-8.859-21.89-10.864-24.32-17.263-36.06 5.941-12.73 49.66-30.83 40.202-24.19-15.641 11.88-35.158 8.91-53.776-46.22 10.02-19.24-4.968-27.12-10.971-17.84-1.339.39-10.448-16.97-11.031-5.1 3.602-16.08 3.538-24.59 3.857-35.13 3.434-67.43 17.38-105.96 22.108-5.67 6.217-63.67 38.378-65.82 21.193-10.58-11.51 6.2-38.148 6.15-44.476-12.76 9.633-49.1-.571-16.39-2.922-19.83-.059-23.28-5.909-29.63-10.629-31.14.108-144.43-9.482-146.75-17.968-18.16-1.99-23.85 21.29-2.6 15.227-18.35 13.076 27.39 7.006 50.08-.238-15.84 10.477 17.04 7.232 19.09 14.329-44.1 18.025-119.538 26.665-182.706 31.891-37.969 6.224-5.103-11.802-14.723-16.16-15.819-16.726-11.493-34.61-47.427-43.89 24.499 23.968-25.365 79.172 106.574 66.158 14.788 23.487-234.755 45.91-198.888 74.755-10.286 17.408-54.321 23.465-101.789 31.634-152.568 78.571-303.316 61.465-210.966-17.015 57.992-17.211 51.214-33.708 35.166-48.984 97.431-52.079-185.401 5.625-190.603-47.838-13.16-9.392 42.199-20.712 34.04-31.631 25.004-16.522 84.872-21.452 117.003-33.014 37.987-22.833 136.803-19.859 212.075-23.897 41.684 10.831-55.047 6.512 60.488 25.676 4.267 2.68 18.881.713 20.818-3.213 33.066-16.313 144.281 24.067 180.522-19.371-11.794-2.184-29.625 4.866-39.241 1.001-4.262-3.679-15.801.739-25.824.579-36.698-4.087-6.76-11.621-16.462-19.325-12.777-2.75-19.916 9.225-50.188 16.886-20.843-4.955-29.543-36.962-46.97-34.188-1.092-9.046-26.763 3.424-8.352 6.998-2.13 7.037 31.305 6.999 28.596 13.629-18.758-6.378-10.841 5.305-35.497 8.98 25.795-11.51-23.86-18.245-30.785-27.65-36.597 6.339-60.063.727-66.11 6.901-5.975 7.134-54.116 7.829-45.769 15.185-78.833 19.529-109.831 8.695-63.872-18.313 28.502-6.859 53.767 4.369 77.531-2.918 14.159-6.639 16.471-14.595-1.826-16.664-13.579-7.178 31.647.35 29.411-7.214 31.479 4.251 65.646-16.941 103.789-17.731 26.055 2.288 7.288-16.2 47.968-18.797-5.894 8.367-36.576 13.289-12.372 17.403 23.69-2.256 37.027 1.95 65.905-4.569 4.981 2.582 9.365 4.382 19.848.669 21.547-1.911 7.304-10.417 35.341-13.922 10.789 9.606 19.226-3.149 15.507-7.315 24.243-4.885 36.012.294 59.923-5.215-9.788-7.873-56.684 4.761-68.829-3.701-11.391-13.086 89.023-26.163 45.349-28.505-26.159-1.433-22.933 11.534-48.291 13.829-19.272 2.824-40.026 11.938-29.865 15.872 14.501 6.122-29.901 10.569-32.93 18.804-52.903 16.461-35.019-3.308-34.684-14.677-9.413 4.344-38.98 11.752-48.076 7.256-10.966-3.046 12.709-2.943.954-6.657 18.572-2.791-3.543-11.504 28.292-14.692 45.373-3.22 137.162-48.239 161.198-42.441 3.58-2.551 80.787-19.086 68.737-7.009 15.74-6.289 32.64 7.023 37.06 7.072 83.1.901 56.78 31.26-20.36 14.174 2.42 5.258 19.36 5.695 9.98 12.607-9.34 5.733 60.62 8.782 44.71-3.796 46.69-12.817 39.12 2.979 51.37-19.223 34.36-3.349 28.68 3.749 42.82 2.438 61.48-13.072 19.72 2.82 55.84-5.442 44.96-5.674 15.38 4.937 44.34-3.371-11.29-14.057 50.09-2.04 62.64 1.888 14.91-5.881-14.91-6.152-9.91-11.232-1.59-9.31 14.41-12.265 25.18-22.356 42.67-4.538 12.88 8.314 22.23 14.316-3.28 7.636 6.76 14.085-1.41 22.057-10.67 10.986-59.43 6.191-9.33 9.895 35.17-9.593 14.09-18.167 43.38-20.21 4.82 2.387 8.62 13.323 9.35 5.536l.07.013z" fill="url(#paint0_linear_701_7099)"/><path d="M-618.967 111.514c17.967-2.422 46.043-5.058 62.395-5.836l37.871-9.657c-17.941.894-74.988.649-30.459-7.901-12.456-4.237 11.344-7.741 26.383-6.746 38.178-6.906-1.703 8.192 34.554 3.735 6.064-.503 33.903-20.296 82.633-28.76 17.453-5.034 35.953-2.251 51.351-5.888 11.332-3.44 20.338 2.168 34.813-1.657 24.462-.674-10.792 3.02-4.341 5.102 20.009-3.793 20.796 2.8 17.161 8.229 39.914 2.88 59.199 18.24 68.108 30.152 17.59-8.512-5.905-2.115 4.927-7.472 18.577.51 78.129 2.677 86.416-3.766-3.403 7.381-25.308 13.637 9.274 7.703-14.19 4.957-8.705 6.427 7.089 2.625 13.125 2.316 11.206 9.787 27.129 11.778 8.715 1.817 10.504 1.164 3.98 5.554-6.013.414-12.265-.69-18.758 1.864 4.311 3.99 13.449 4.86 39.953 3.535-17.366 19.814-2.17.752 34.669-2.12l13.993-1.646c-14.225 10.671 22.978 16.894 53.83 7.834 10.1 1.803-21.888 15.553-.738 8.919 1.776-4.326 55.857-8.021 29.769-9.479 48.004-7.636-32.146-2.072 48.159-21.785 32.496-6.427-16.531 22.209-25.684 28.054 73.596-19.999-48.918 24.553 33.653 2.316 26.712-5.973 36.828-16.202 47.411-3.416-8.009 5.803-26.064 3.024-25.919 10.049-4.509 5.28-33.694 7.444-42.034 7.389-16.004-8.284-29.763 4.073-70.43 13.232-9.922-4.048-15.755 2.21-28.412.758-.44 5.647-27.647 4.963-42.994 9.333-72.282 17.493-30.38 13.969-57.362 29.056 40.387-3.229 28.241 14.227 66.299 13.586-15.986 6.817-31.851 15.42-19.16 20.005 41.852-5.644 17.422-18.633 83.494-23.489 9.808-15.831 28.418-17.285 54.391-31.944 27.173-12.12 72.476 6.599 39.575 16.63-9.255 21.37 69.293-15.681 48.972 3.236-38.234 32.91 34.895 19.288-32.359 31.609 23.473-3.687 39.973-5.711 37.813 1.72-23.1 12.961-86.184 12.436-116.687 10.069-43.68 8.596-68.365 11.927-7.86 5.921 32.6-1.379 12.18 18.089 6.487 18.441-13.54-1.009-58.262 10.557-47.043 2.687 68.029-10.85-69.276-.011-59.631 10.482-39.058.478-57.003 8.936-81.582 15.684 8.042-11.415-16.322 5.671-17.841 9.075-114.393 20.541-63.355 10.747-113.764 40.001-13.522-11.642 19.18-22.715-49.823-20.848-9.57-.862-19.611 7.16-28.954 4.22-47.265-11.658-129.465 23.668-109.572 37.608 23.848 12.868 66.378-10.774 105.298-8.441-114.993 39.836 42.919 6.037-16.208 32.857-31.917 20.71 42.411 4.569 48.02 15.748 29.857-10.967 63.27-7.242 69.729-9.308 6.947-.907 16.643-.738 16.685-3.935 12.314 11.785 83.059-.468 73.816 12.811 24.713 6.853 99.146 28.736 78.495 36.594-12.136-2.218 47.361-1.978 38.454 4.331 39.735-5.134 53.228 4.568 76.016 8.207 23.207 7.277-164.317 45.921-230.207 82.15-13.086 5.737-29.323 5.797-42.399 10.943-4.056 1.829-124.095 21.464-133.725 35.075-7.211 5.925-34.222 8.646-20.46 7.846-.08 4.635-25.082 3.482-24.108 9.615-10.846 6.127-48.819 6.255-15.671 12.778-3.703 8.625-55.412 14.651-41.78 23.597-15.38 1.082-58.192 1.402-34.083-1.612-24.303 3.963-12.832-5.318-12.7-10.017-4.79 1.707 13.03-8.369 6.897-9.01-7.935-14.665 183.072-91.856 99.558-152.477-2.379-8.507-24.93-8.215 11.554-18.449-7.926-7.101 15.054-13.104 44.232-20.045 31.712-2.914 34.969-32.718 3.71-17.807-23.606 1.106-26.266-8.098-46.72-7.93 9.329-5.805 1.217-11.676-11.09-12.058-29.159.636-29.824-10.117-51.687-10.706-35.404 4.284-51.277-5.745-72.385-9.628-22.545-3.727 6.002-10.122.766-16.431-5.281-11.741-26.435-19.592-14.428-34.159-31.67-7.538-9.1-13.352-44.622-15.49 1.711-18.901 92.847-71.837 112.184-64.604 33.486-10.836 41.403-65 45.646-72.503-7.995 7.935-14.13 5.895-16.757 1.469-9.55 9.759-15.146-3.616-5.945-7.895-16.549-1.739-38.508-5.616-34.298-12.721-20.257-4.647-17.063 3.046-33.066 4.893-9.109-1.05-53.553 7-35.131 1.731 10.085-3.219-109.18 24.513-168.709 20.254 14.057-2.467 153.223-21.805 94.684-20.946-29.022-7.259 22.803-12.668-12.871-11.854-1.568-9.181 18.16-6.247 14.926-13.76l17.197-4.855.038-.039z" fill="url(#paint1_linear_701_7099)"/><path d="M644.371 26.236c14.92 2.703-1.128 8.664 2.217 12.318 21.617 2.874 14.099-7.28 20.68-12.867 13.235 2.328 30.554-2.874 26.368 3.932 14.104-6.093-8.936-3.131.159-8.478 89.457-9.106 56.376 3.919 75.417 3.558 10.177.496 43.426 4.29 47.452 9.008-32.991 10.005-68.74-2.96-101.731 8.567 89.2-9.714 25.768 4.005 62.858 1.842 31.059-9.31 14.945 2.73-18.067 7.339 16.752-.38 33.182-4.13 48.975-4.931 27.951-8.226 49.703 6.02 9.888 6.92-3.787 5.817-43.065 2.076-53.101 10.461 46.91-9.788-28.701 19.294-34.653 16.445-6.255 8.055 10.424 8.268-3.153 13.256-7.05-5.582-55.163 11.269-35.372 17.587-7.293 1.902-6.521 2.864-21.122 6.72-27.319 5.559-52.621 1.752-37.015 2.241-24.932.597 29.18 18.604-19.12 19.72-4.59-6.658-45.115 13.378-91.28 13.092-16.792 2.638-70.937 19.066-66.501 8.828-13.313 5.158-25.974 5.687-40.249 6.887-6.652 4.528-61.984 21.952-71.493 27.709-73.114-15.491-9.591-38.167-1.422-45.147 7.021-4.589 39.324-14.484 37.887-22.64 13.25-.756-6.516 1.109 13.389-8.099 110.148-52.098-22.993-27.125-9.745-49.203 9.835-3.276 28.615-1.768 18.303-11.364 29.418-10.047 65.702-.084 94.832-12.611-21.35-2.885 1.404-6.946 20.831-9.781 58.016-2.702 25.147-7.152 52.88-8.643-4.625 7.178 1.255 3.908 7.643-1.564 13.79-.339 26.466.474 44.573-2.54-8.492 5.816-15.616 7.526-24.145 11.742 4.745-1.588 40.315-5.583 43.817-10.291v-.013z" fill="url(#paint2_linear_701_7099)"/><path d="M1530.61 568.589c-43.04.826-114.79 14.458-145.55 9.078 40.54-20.919 33.83-57.194 146.54-58.551 22.42-1.086 79.48-21.442 108.71-21.928 9.08 15.329 31.85-13.997 107.26-5.131-41.34 10.306-22.35 13.414-3.64 19.991 27.22 4.366 44.97-17.762 67.46-24.468-12.69 60.527 80.35 50.165-118.88 112.04-60.16 12.212-80.01-38.985-161.91-31.031h.01z" fill="url(#paint3_linear_701_7099)"/></g><defs><linearGradient id="paint0_linear_701_7099" x1="5742.16" y1="-877.959" x2="448.518" y2="1763.88" gradientUnits="userSpaceOnUse"><stop stop-color="#fff"/><stop offset="1" stop-color="#0f0f0fed"/></linearGradient><linearGradient id="paint1_linear_701_7099" x1="1580.22" y1="-1029.19" x2="-1142.49" y2="-548.157" gradientUnits="userSpaceOnUse"><stop stop-color="#fff"/><stop offset="1" stop-color="#0f0f0fed"/></linearGradient><linearGradient id="paint2_linear_701_7099" x1="1658.8" y1="-316.145" x2="194.823" y2="189.015" gradientUnits="userSpaceOnUse"><stop stop-color="#fff"/><stop offset="1" stop-color="#0f0f0fed"/></linearGradient><linearGradient id="paint3_linear_701_7099" x1="2499.04" y1="276.978" x2="1377.45" y2="788.45" gradientUnits="userSpaceOnUse"><stop stop-color="#fff"/><stop offset="1" stop-color="#0f0f0fed"/></linearGradient></defs></svg>