<svg width="14" height="15" fill="none" xmlns="http://www.w3.org/2000/svg"><g clip-path="url(#clip0_504_10790)"><mask id="a" style="mask-type:luminance" maskUnits="userSpaceOnUse" x="0" y="0" width="14" height="15"><path d="M0 .619h14v14H0v-14z" fill="#fff"/></mask><g mask="url(#a)" stroke="#000" stroke-width=".4" stroke-miterlimit="10" stroke-linecap="round" stroke-linejoin="round"><path d="M10.067 12.795v.973c0 .357-.29.646-.646.646H.917a.646.646 0 01-.646-.646V3.964l3.14-3.14h6.01c.357 0 .646.289.646.645V4.52"/><path d="M3.411.824l-3.14 3.14h2.574a.566.566 0 00.566-.566V.824zm.335 3.709h2.845m1.14 2.169H1.715M6.473 8.38H1.715m5.333 1.68H1.715m6.601 1.678H1.715m7.547-4.353v.292a.804.804 0 001.608 0v-.292a.804.804 0 00-1.608 0zm2.024 1.608a.321.321 0 00-.444-.1 1.432 1.432 0 01-1.55 0 .321.321 0 00-.443.1 1.434 1.434 0 00-.224.771v.623c0 .188.152.34.34.34h2.205a.34.34 0 00.34-.34v-.623c0-.283-.082-.548-.224-.771z"/><path d="M10.067 9.12c-.248 0-.482-.064-.686-.175l.548.903a.162.162 0 00.276 0l.548-.903a1.431 1.431 0 01-.686.175z"/><path d="M13.332 9.515a6.041 6.041 0 00.394-1.592.42.42 0 00-.253-.429 2.892 2.892 0 01-1.609-1.75.422.422 0 00-.333-.29 9.45 9.45 0 00-2.931 0 .422.422 0 00-.333.29 2.893 2.893 0 01-1.609 1.75.42.42 0 00-.253.429c.224 2.125 1.609 4.068 3.503 4.84a.41.41 0 00.315 0c1.16-.473 2.129-1.384 2.757-2.508"/></g></g><defs><clipPath id="clip0_504_10790"><path fill="#fff" transform="translate(0 .619)" d="M0 0h14v14H0z"/></clipPath></defs></svg>