<svg width="14" height="15" fill="none" xmlns="http://www.w3.org/2000/svg"><g clip-path="url(#clip0_504_10830)"><path d="M1.963 2.666h4.132m-4.132 1.35h4.132M2.127 6.508h7.71m-7.71 1.699h7.71m-7.71 1.698H5.19m-3.063 1.697H5.19" stroke="#000" stroke-width=".5" stroke-miterlimit="10" stroke-linecap="round" stroke-linejoin="round"/><mask id="a" style="mask-type:luminance" maskUnits="userSpaceOnUse" x="0" y="0" width="14" height="15"><path d="M0 .619h14v14H0v-14z" fill="#fff"/></mask><g mask="url(#a)" stroke="#000" stroke-width=".5" stroke-miterlimit="10" stroke-linecap="round" stroke-linejoin="round"><path d="M12.811 14.408h-6.16a.55.55 0 01-.551-.55V9.92a.55.55 0 01.55-.55h6.161a.55.55 0 01.55.55v3.937a.55.55 0 01-.55.55z"/><path d="M6.277 9.516l2.904 2.395a.865.865 0 001.1 0l2.903-2.395m.016 4.731l-1.934-1.912m-3.072.001l-1.932 1.911m5.065-10.231H8.682a.547.547 0 01-.547-.547V.824"/><path d="M11.327 8.415V4.016L8.135.824H1.361c-.4 0-.724.324-.724.724V13.69c0 .4.324.724.724.724H5.12"/></g></g><defs><clipPath id="clip0_504_10830"><path fill="#fff" transform="translate(0 .619)" d="M0 0h14v14H0z"/></clipPath></defs></svg>