<svg width="14" height="15" fill="none" xmlns="http://www.w3.org/2000/svg"><g clip-path="url(#clip0_504_10773)"><path d="M3.198 3.202a.205.205 0 100-.41.205.205 0 000 .41zm-1.64 0a.205.205 0 100-.41.205.205 0 000 .41zm.82 0a.205.205 0 100-.41.205.205 0 000 .41zm-.045 2.172h1.858a.278.278 0 00.27-.206.278.278 0 00-.127-.315l-.282-.167a2.38 2.38 0 00.704-1.705A2.39 2.39 0 002.413.62 2.38 2.38 0 000 2.997a2.404 2.404 0 002.333 2.377zM.997 1.595a1.954 1.954 0 011.41-.566 1.978 1.978 0 011.94 1.955A1.967 1.967 0 013.67 4.48a.3.3 0 00.045.483l.002.002H2.339A1.973 1.973 0 01.41 2.996c0-.531.208-1.029.587-1.402zM13.795 14.21h-.205v-3.054c0-.8-.473-1.527-1.207-1.853l-1.08-.463c.262-.083.5-.23.693-.436a1.7 1.7 0 00.46-1.153c0-.389-.137-.755-.394-1.06a2.123 2.123 0 01-.498-1.367v-.982a3.2 3.2 0 00-.944-2.278A3.2 3.2 0 008.342.619 3.226 3.226 0 005.12 3.84v.95c0 .517-.203 1.01-.533 1.407a1.644 1.644 0 00-.225 1.765c.205.437.575.75 1.018.883l-1.073.467a2.02 2.02 0 00-1.24 1.866v2.414a.205.205 0 10.41 0V11.18c0-.651.388-1.235.991-1.49l1.345-.584v1.234h-.618a.616.616 0 00-.612.68l.338 3.19H.205a.205.205 0 100 .41h13.59a.205.205 0 000-.41zm-2.046-7.756c.193.23.296.506.296.797 0 .32-.127.637-.347.872a1.228 1.228 0 01-.905.385h-.267l-.35-.151a.936.936 0 01-.56-.738 2.019 2.019 0 001.064-1.777V4.299a2.658 2.658 0 00.474-.01v.534c0 .596.211 1.175.595 1.63zM8.392 9.691a7.598 7.598 0 01-2.169-.276v-.488l.06-.026h.001l.366-.16c.407-.177.695-.54.782-.963.179.052.367.08.563.08h.668c.196 0 .385-.029.564-.081.09.422.379.781.787.956l.39.167.03.013v.462a7.613 7.613 0 01-2.042.316zm2.042.11v.538h-4.21v-.5a8.014 8.014 0 004.21-.037zm.72-5.926c-.565.077-1.202-.075-1.64-.415a.205.205 0 00-.252.325c.287.222.633.378 1.008.457V5.36a1.5 1.5 0 01-.456.615 1.573 1.573 0 01-.34.214.602.602 0 00-.535-.328h-.481a.602.602 0 000 1.202h.48a.602.602 0 00.582-.449c.275-.104.722-.477.722-.477a1.61 1.61 0 01-1.58 1.312h-.668a1.609 1.609 0 01-1.606-1.607V4.256a5.5 5.5 0 001.958-.702 5.57 5.57 0 001.864-1.815 2.81 2.81 0 01.944 2.136zM9.13 6.462a.19.19 0 01-.191.19h-.481a.191.191 0 010-.382h.48a.19.19 0 01.191.19v.002zM5.53 3.84a2.815 2.815 0 014.353-2.353A5.1 5.1 0 016.196 3.87H5.53v-.028zm-.797 3.947a1.238 1.238 0 01.17-1.328A2.62 2.62 0 005.53 4.79v-.51h.448v1.562c0 .768.431 1.437 1.065 1.778a.936.936 0 01-.557.746l-.325.142h-.297c-.49 0-.923-.276-1.13-.719zm7.14 3.188l-.343 3.232H5.334l-.343-3.232a.202.202 0 01.052-.159.203.203 0 01.152-.068h6.473c.06 0 .114.025.153.069.04.043.058.1.051.158zm1.307 3.232h-1.238l.338-3.188a.616.616 0 00-.611-.68h-.825V9.088l1.375.59c.584.258.96.837.96 1.476v3.054zM8.432 11.7a.78.78 0 000 1.558.78.78 0 000-1.558zm0 1.148a.37.37 0 110-.739.37.37 0 010 .74z" fill="#0F0F0F"/></g><defs><clipPath id="clip0_504_10773"><path fill="#fff" transform="translate(0 .619)" d="M0 0h14v14H0z"/></clipPath></defs></svg>