<svg width="14" height="15" fill="none" xmlns="http://www.w3.org/2000/svg"><g clip-path="url(#clip0_504_10822)" fill="#000"><path d="M10.564 4.68a.556.556 0 00-.412-.36.844.844 0 00-.677.219c-.073.072-.117.117-.26 2.065-.067.907-.13 1.939-.13 2.123 0 .142-.053.619-.11 1.105a1.625 1.625 0 01-.036-.092c-.171-.471-.568-.875-1.12-1.132-.367-.172-.726-.16-.959.038a.57.57 0 00-.188.588c.056.202.2.403.365.635a4 4 0 01.4.63c.1.231.18.47.242.712.072.286.17.564.296.83.059.115.122.238.188.363.203.366.386.744.547 1.132.19.513.974.99 1.063 1.043a.219.219 0 00.219-.376c-.285-.17-.775-.547-.875-.82-.165-.405-.354-.8-.565-1.183l-.186-.357a4.165 4.165 0 01-.272-.75 5.192 5.192 0 00-.266-.777 4.394 4.394 0 00-.437-.701 2.052 2.052 0 01-.3-.497.131.131 0 01.045-.141c.075-.065.245-.09.49.024.601.282.819.676.896.886.073.224.198.428.365.594l-.05.39a.218.218 0 00.192.247h.03a.218.218 0 00.218-.19c.025-.19.249-1.869.249-2.204 0-.407.21-3.435.296-3.903a.405.405 0 01.248-.072c.017 0 .055.012.091.097.067.183.077 1.306.053 2.68v.032a125.47 125.47 0 01-.065 2.321.222.222 0 00.058.157.22.22 0 00.36-.057.217.217 0 00.02-.083c.017-.48.05-1.436.066-2.407a.194.194 0 01.085-.152.596.596 0 01.47-.023c.167.073.167.298.167.305 0 .016.034 1.665.027 2.037a.219.219 0 10.438 0 92.592 92.592 0 00-.023-1.848.646.646 0 01.483.185c.077.088.16.437.19.7v.016c.063.378.065.764.008 1.143a.221.221 0 00.098.223.219.219 0 00.08.03.223.223 0 00.038 0 .219.219 0 00.219-.18c.054-.342.063-.69.026-1.033a.669.669 0 01.195.072c.174.098.29.28.29.848 0 .206.021.514.046.875.046.656.11 1.474.042 1.968-.094.735-.483 1.64-.487 1.655a.217.217 0 00.038.247.22.22 0 00.364-.074c.017-.04.416-.975.518-1.772.068-.531.009-1.374-.04-2.05-.023-.348-.045-.647-.045-.839 0-.464-.06-.973-.512-1.229a1.113 1.113 0 00-.472-.141c-.038-.226-.119-.569-.266-.738a1.094 1.094 0 00-.856-.335.712.712 0 00-.399-.465c-.23-.084-.48-.09-.713-.015.007-1.058-.01-2.015-.098-2.22zm-2.514.938a2.7 2.7 0 10-5.4 0 2.7 2.7 0 005.4 0zM5.35 7.88a2.262 2.262 0 110-4.523 2.262 2.262 0 010 4.523z"/><path d="M.212 6.6l1.151.362c.178.528.459 1.014.825 1.433l-.258 1.18a.219.219 0 00.076.22 5.34 5.34 0 001.4.807.218.218 0 00.227-.042l.891-.816c.272.054.549.082.826.082a3.4 3.4 0 00.84-.085.219.219 0 10-.097-.427 2.938 2.938 0 01-.743.074c-.283 0-.566-.032-.842-.095a.219.219 0 00-.196.052l-.875.8a4.894 4.894 0 01-1.052-.609l.258-1.152a.219.219 0 00-.054-.196 3.788 3.788 0 01-.839-1.462.219.219 0 00-.143-.144L.475 6.225a4.962 4.962 0 010-1.215l1.128-.357a.219.219 0 00.147-.144 3.788 3.788 0 01.844-1.458.219.219 0 00.053-.196L2.387 1.7c.324-.245.678-.45 1.052-.608l.875.799a.219.219 0 00.196.051 3.771 3.771 0 011.683 0 .219.219 0 00.196-.051l.875-.799a4.92 4.92 0 011.049.608l-.254 1.156a.219.219 0 00.054.196c.332.356.592.774.765 1.23a.219.219 0 00.41-.156 4.183 4.183 0 00-.776-1.285l.26-1.181a.219.219 0 00-.077-.219 5.34 5.34 0 00-1.4-.807.219.219 0 00-.227.043l-.891.817a4.2 4.2 0 00-1.652 0L3.633.676a.219.219 0 00-.228-.042c-.504.197-.975.47-1.397.808a.219.219 0 00-.077.219l.257 1.18a4.233 4.233 0 00-.828 1.43l-1.148.364a.219.219 0 00-.151.176 5.4 5.4 0 000 1.614.219.219 0 00.15.175zm8.227 1.875c.178-.175.314-.389.396-.625a.219.219 0 00-.418-.13 1.216 1.216 0 01-.302.462.219.219 0 00.324.293z"/></g><defs><clipPath id="clip0_504_10822"><path fill="#fff" transform="translate(0 .619)" d="M0 0h14v14H0z"/></clipPath></defs></svg>