<svg width="37" height="36" fill="none" xmlns="http://www.w3.org/2000/svg"><path opacity=".5" d="M3.5 18c0-7.071 0-10.607 2.197-12.803C7.893 3 11.429 3 18.5 3c7.071 0 10.607 0 12.803 2.197C33.5 7.393 33.5 10.929 33.5 18c0 7.071 0 10.607-2.197 12.803C29.107 33 25.571 33 18.5 33c-7.071 0-10.607 0-12.803-2.197C3.5 28.607 3.5 25.071 3.5 18z" fill="#fff"/><path d="M16.315 11.276a1.125 1.125 0 00-1.63-1.552l-3.47 3.645-.9-.945a1.125 1.125 0 10-1.63 1.552l1.715 1.8a1.125 1.125 0 001.629 0l4.286-4.5zM20 12.375a1.125 1.125 0 000 2.25h7.5a1.125 1.125 0 000-2.25H20zm-3.685 9.401a1.125 1.125 0 10-1.63-1.552l-3.47 3.645-.9-.945a1.125 1.125 0 10-1.63 1.552l1.715 1.8a1.125 1.125 0 001.629 0l4.286-4.5zM20 22.875a1.125 1.125 0 000 2.25h7.5a1.125 1.125 0 000-2.25H20z" fill="#fff"/></svg>