<svg width="36" height="36" fill="none" xmlns="http://www.w3.org/2000/svg"><path d="M3.416 7.87a1.125 1.125 0 011.386-.783l2.554.708a4.06 4.06 0 012.844 2.817l3.227 11.68.237.818a4.45 4.45 0 012.283 1.902l.465-.144 13.305-3.457a1.122 1.122 0 011.372.805 1.126 1.126 0 01-.805 1.373l-13.257 3.444-.492.153c-.01 1.905-1.326 3.646-3.315 4.164-2.387.62-4.84-.753-5.478-3.066-.64-2.315.777-4.694 3.162-5.313.117-.03.236-.057.355-.078L8.031 11.21a1.81 1.81 0 00-1.275-1.247L4.2 9.254a1.125 1.125 0 01-.784-1.384z" fill="#fff"/><path opacity=".5" d="M14.346 13.095l.772 2.794c.728 2.633 1.091 3.95 2.16 4.548 1.07.6 2.428.246 5.143-.459l2.88-.75c2.715-.705 4.072-1.057 4.69-2.094.618-1.038.255-2.355-.474-4.987l-.771-2.793c-.727-2.634-1.092-3.951-2.16-4.55-1.071-.6-2.428-.246-5.143.46l-2.88.748c-2.715.705-4.073 1.059-4.69 2.097-.617 1.036-.255 2.353.473 4.986z" fill="#fff"/></svg>