<svg width="26" height="27" fill="none" xmlns="http://www.w3.org/2000/svg"><g clip-path="url(#clip0_504_10704)"><path d="M20.996 13.548c0-4.446-3.582-8.05-8-8.05-4.42.001-8.002 3.604-8.002 8.051 0 4.017 2.926 7.347 6.75 7.951v-5.625h-2.03V13.55h2.032v-1.775c0-2.017 1.195-3.13 3.022-3.13.876 0 1.791.156 1.791.156v1.98H15.55c-.993 0-1.303.621-1.303 1.258v1.51h2.218l-.354 2.326h-1.865V21.5c3.824-.604 6.75-3.934 6.75-7.95z" fill="#fff"/></g><defs><clipPath id="clip0_504_10704"><path fill="#fff" transform="translate(4.996 5.5)" d="M0 0h16v16H0z"/></clipPath></defs></svg>