<svg width="24" height="24" fill="none" xmlns="http://www.w3.org/2000/svg"><g clip-path="url(#clip0_504_9785)"><path d="M24 12c0 5.99-4.388 10.954-10.125 11.854V15.47h2.796l.532-3.47h-3.328V9.75c0-.95.465-1.875 1.956-1.875h1.513V4.922s-1.374-.234-2.687-.234c-2.74 0-4.532 1.66-4.532 4.668V12H7.078v3.469h3.047v8.385C4.388 22.954 0 17.99 0 12 0 5.373 5.373 0 12 0s12 5.373 12 12z" fill="#1877F2"/><path d="M16.671 15.469L17.203 12h-3.328V9.749c0-.949.465-1.874 1.956-1.874h1.513V4.922s-1.374-.234-2.686-.234c-2.742 0-4.533 1.66-4.533 4.668V12H7.078v3.469h3.047v8.385a12.097 12.097 0 003.75 0V15.47h2.796z" fill="#fff"/></g><defs><clipPath id="clip0_504_9785"><path fill="#fff" d="M0 0h24v24H0z"/></clipPath></defs></svg>