<svg width="32" height="32" fill="none" xmlns="http://www.w3.org/2000/svg"><rect width="32" height="32" rx="16" fill="url(#paint0_linear_504_11545)"/><path d="M7 9.42c0-.577.203-1.053.608-1.429.406-.375.933-.562 1.581-.562.637 0 1.153.184 1.546.554.406.38.609.877.609 1.489a1.82 1.82 0 01-.591 1.385c-.405.381-.938.572-1.599.572h-.017c-.637 0-1.152-.19-1.546-.572C7.197 10.477 7 9.997 7 9.42zm.226 15.152V13.005h3.857v11.567H7.226zm5.994 0h3.857v-6.46c0-.403.047-.715.14-.934.161-.393.408-.725.738-.996s.744-.407 1.242-.407c1.297 0 1.946.872 1.946 2.615v6.182H25v-6.633c0-1.708-.405-3.004-1.216-3.887-.811-.883-1.883-1.325-3.214-1.325-1.495 0-2.659.641-3.493 1.922v.035h-.017l.017-.034v-1.646H13.22c.023.37.035 1.519.035 3.446 0 1.928-.012 4.635-.035 8.122z" fill="#fff"/><defs><linearGradient id="paint0_linear_504_11545" x1="0" y1="0" x2="31.75" y2=".033" gradientUnits="userSpaceOnUse"><stop offset=".351" stop-color="#FCBC5D"/><stop offset="1" stop-color="#F27243"/></linearGradient></defs></svg>