<svg width="26" height="27" fill="none" xmlns="http://www.w3.org/2000/svg"><g clip-path="url(#clip0_504_10701)"><path d="M13.547 7.499h.09c.821.003 4.986.033 6.11.335a2.01 2.01 0 011.414 1.42c.101.38.172.883.22 1.402l.01.104.022.26.008.104c.065.914.073 1.77.074 1.957v.075c0 .194-.01 1.108-.082 2.06l-.008.105-.009.104c-.05.572-.124 1.14-.235 1.558a2.008 2.008 0 01-1.415 1.42c-1.16.312-5.569.334-6.18.335h-.142c-.309 0-1.587-.006-2.927-.052l-.17-.006-.087-.004-.17-.007-.172-.007c-1.11-.049-2.167-.128-2.654-.26a2.007 2.007 0 01-1.415-1.419c-.11-.417-.185-.986-.235-1.558l-.008-.105-.008-.104a31.401 31.401 0 01-.082-2.036v-.123c.002-.215.01-.958.064-1.778l.007-.103.003-.052.008-.104.022-.26.01-.104c.048-.519.12-1.023.22-1.402a2.007 2.007 0 011.415-1.42c.487-.13 1.544-.21 2.654-.26l.17-.007.172-.006.086-.003.171-.007c.952-.03 1.904-.048 2.856-.051h.193v-.001zm-1.65 3.21v4.818l4.156-2.408-4.157-2.41z" fill="#fff"/></g><defs><clipPath id="clip0_504_10701"><path fill="#fff" transform="translate(4.996 5.5)" d="M0 0h16v16H0z"/></clipPath></defs></svg>