<svg width="24" height="25" fill="none" xmlns="http://www.w3.org/2000/svg"><path d="M12 24.5c6.627 0 12-5.373 12-12S18.627.5 12 .5 0 5.873 0 12.5s5.373 12 12 12z" fill="#3A559F"/><path d="M15.802 11.08l-.242 2.09a.392.392 0 01-.384.35h-2.182l-.01 6.198a.28.28 0 01-.274.282H10.5a.273.273 0 01-.273-.284V13.52H8.591a.392.392 0 01-.387-.396l-.009-2.09a.393.393 0 01.388-.398h1.644V8.618C10.227 6.275 11.618 5 13.658 5h1.672a.393.393 0 01.389.398v1.76a.39.39 0 01-.39.397h-1.025c-1.108 0-1.324.546-1.324 1.334v1.747h2.437a.393.393 0 01.385.443z" fill="#fff"/></svg>