<svg width="24" height="25" fill="none" xmlns="http://www.w3.org/2000/svg"><g clip-path="url(#clip0_504_11505)"><path d="M12 24.5c6.627 0 12-5.373 12-12S18.627.5 12 .5 0 5.873 0 12.5s5.373 12 12 12z" fill="#03A9F4"/><path d="M19.772 7.68a6.63 6.63 0 01-1.836.504 3.167 3.167 0 001.402-1.762 6.366 6.366 0 01-2.021.772 3.186 3.186 0 00-5.514 2.179c-.002.244.023.487.074.726a9.024 9.024 0 01-6.57-3.333 3.19 3.19 0 00.98 4.263 3.145 3.145 0 01-1.44-.393v.035A3.202 3.202 0 007.402 13.8a3.177 3.177 0 01-.835.104 2.835 2.835 0 01-.605-.053 3.22 3.22 0 002.98 2.22 6.409 6.409 0 01-4.71 1.315 8.967 8.967 0 004.894 1.43c5.866 0 9.073-4.858 9.073-9.07 0-.14 0-.275-.011-.411a6.34 6.34 0 001.585-1.655z" fill="#fff"/></g><defs><clipPath id="clip0_504_11505"><path fill="#fff" transform="translate(0 .5)" d="M0 0h24v24H0z"/></clipPath></defs></svg>