<svg width="32" height="32" fill="none" xmlns="http://www.w3.org/2000/svg"><rect width="32" height="32" rx="16" fill="url(#paint0_linear_504_11548)"/><path d="M26 16.304c0-5.557-4.477-10.061-10-10.061S6 10.747 6 16.303c0 5.023 3.657 9.185 8.438 9.94v-7.03h-2.54v-2.91h2.54v-2.216c0-2.521 1.492-3.914 3.777-3.914 1.094 0 2.238.196 2.238.196v2.476h-1.26c-1.243 0-1.63.776-1.63 1.572v1.887h2.773l-.443 2.908h-2.33v7.03c4.78-.754 8.437-4.916 8.437-9.938z" fill="#fff"/><defs><linearGradient id="paint0_linear_504_11548" x1="0" y1="0" x2="31.75" y2=".033" gradientUnits="userSpaceOnUse"><stop offset=".351" stop-color="#FCBC5D"/><stop offset="1" stop-color="#F27243"/></linearGradient></defs></svg>