<svg width="24" height="25" fill="none" xmlns="http://www.w3.org/2000/svg"><g clip-path="url(#clip0_504_11511)"><path d="M12 24.5c6.627 0 12-5.373 12-12S18.627.5 12 .5 0 5.873 0 12.5s5.373 12 12 12z" fill="url(#paint0_linear_504_11511)"/><path d="M14.55 5.834H9.457A4.12 4.12 0 005.34 9.951v5.094a4.12 4.12 0 004.117 4.117h5.093a4.12 4.12 0 004.118-4.117V9.95a4.12 4.12 0 00-4.117-4.117zm2.63 9.216a2.637 2.637 0 01-2.635 2.635H9.452a2.637 2.637 0 01-2.635-2.635V9.957a2.637 2.637 0 012.635-2.635h5.093a2.637 2.637 0 012.635 2.635v5.093z" fill="#fff"/><path d="M12.002 9.093A3.414 3.414 0 008.594 12.5a3.414 3.414 0 003.408 3.408A3.414 3.414 0 0015.41 12.5a3.414 3.414 0 00-3.408-3.408zm0 5.477a2.071 2.071 0 01-2.07-2.07c0-1.14.928-2.069 2.07-2.069 1.141 0 2.07.928 2.07 2.07 0 1.141-.929 2.07-2.07 2.07zm3.665-5.104a.576.576 0 10-.184-1.137.576.576 0 00.184 1.137z" fill="#fff"/></g><defs><linearGradient id="paint0_linear_504_11511" x1="2.863" y1="21.637" x2="19.916" y2="4.584" gradientUnits="userSpaceOnUse"><stop stop-color="#FEE411"/><stop offset=".052" stop-color="#FEDB16"/><stop offset=".138" stop-color="#FEC125"/><stop offset=".248" stop-color="#FE983D"/><stop offset=".376" stop-color="#FE5F5E"/><stop offset=".5" stop-color="#FE2181"/><stop offset="1" stop-color="#9000DC"/></linearGradient><clipPath id="clip0_504_11511"><path fill="#fff" transform="translate(0 .5)" d="M0 0h24v24H0z"/></clipPath></defs></svg>