<svg width="514" height="367" fill="none" xmlns="http://www.w3.org/2000/svg"><path fill-rule="evenodd" clip-rule="evenodd" d="M496.735 1.002c9.508-.138 17.037 7.997 16.165 17.466L487.871 290.21c-.758 8.233-7.665 14.532-15.933 14.532h-37.02l15.94 56.404c.972 3.442-2.715 6.332-5.825 4.566l-107.36-60.97H62.993a16 16 0 01-15.764-13.262L1.239 26.708C-.443 17.016 6.936 8.114 16.772 7.97L496.736 1z" fill="#FFF4EC"/><path d="M512.9 18.468l.498.045-.498-.046zM496.735 1.002l-.007-.5.007.5zm-8.864 289.209l.498.046-.498-.046zm-52.953 14.532l-.482.136-.179-.636h.661v.5zm15.94 56.404l-.481.136.481-.136zm-5.825 4.566l-.247.435.247-.435zm-107.36-60.97v-.5h.132l.115.066-.247.434zM47.229 291.481l.492-.085-.492.085zM1.239 26.708l.493-.086-.492.086zM16.772 7.97l-.007-.5.007.5zm495.631 10.45c.845-9.172-6.449-17.053-15.66-16.92l-.014-1c9.805-.142 17.569 8.248 16.67 18.012l-.996-.091zm-25.029 271.744l25.029-271.743.996.091-25.029 271.744-.996-.092zm-15.435 14.078c8.01 0 14.7-6.102 15.435-14.078l.996.092c-.782 8.49-7.904 14.986-16.431 14.986v-1zm-37.02 0h37.02v1h-37.02v-1zm15.459 57.04l-15.941-56.404.963-.272 15.94 56.404-.962.272zm-5.097 3.996c2.721 1.545 5.948-.984 5.097-3.996l.962-.272c1.094 3.872-3.054 7.124-6.553 5.137l.494-.869zm-107.36-60.97l107.36 60.97-.494.869-107.36-60.97.494-.869zm-274.927-.066h274.68v1H62.993v-1zM47.72 291.396a15.5 15.5 0 0015.272 12.847v1a16.5 16.5 0 01-16.257-13.676l.986-.171zM1.733 26.622l45.99 264.774-.986.171L.746 26.793l.986-.171zm15.046-18.15C7.25 8.61.101 17.231 1.732 26.621l-.985.171C-.99 16.798 6.62 7.62 16.764 7.471l.014 1zm479.964-6.97L16.778 8.472l-.014-1L496.728.501l.014 1z" fill="#FFA437"/></svg>