<svg width="1027" height="117" fill="none" xmlns="http://www.w3.org/2000/svg"><path d="M611.5 25C855-32 938.183-12.594 1027-12.594l-88-61.497L174.57-87-20-29.525l12.5 80.197c-1.98 11.434 81.73 68.058 258.156 66.288C427.081 115.189 460.555 60.334 611.5 25z" fill="url(#paint0_linear_701_10575)"/><path d="M557 17.5c133.5-39.5 321.183-48 410-48l-88-69.013L114.57-114-80-49.5l12.5 90c-1.981 12.831 81.73 76.376 258.156 74.389C367.081 112.902 406.65 61.986 557 17.5z" fill="#fff"/><defs><linearGradient id="paint0_linear_701_10575" x1="-20" y1="-87.002" x2="-20" y2="117" gradientUnits="userSpaceOnUse"><stop stop-color="#FCBC5D"/><stop offset="1" stop-color="#F27243"/></linearGradient></defs></svg>