<svg width="14" height="15" fill="none" xmlns="http://www.w3.org/2000/svg"><g clip-path="url(#clip0_504_10762)" fill="#0F0F0F"><path d="M8.37 5.288a2.405 2.405 0 011.769 1.929.219.219 0 10.431-.073 2.843 2.843 0 00-2.091-2.28.219.219 0 10-.11.425z"/><path d="M4.447 12.175a.87.87 0 00.135-1.063l.715-.715a3.7 3.7 0 002.469.94 3.723 3.723 0 003.718-3.718 3.723 3.723 0 00-3.718-3.72 3.723 3.723 0 00-3.72 3.72c0 .946.357 1.811.941 2.469l-.714.714a.87.87 0 00-1.063.135l-2.188 2.188a.87.87 0 00-.256.619.872.872 0 001.494.619l2.187-2.188zm3.319-7.838a3.285 3.285 0 013.28 3.282 3.285 3.285 0 01-3.28 3.28 3.285 3.285 0 01-3.282-3.28 3.285 3.285 0 013.282-3.282zm-3.629 7.529L1.95 14.053a.438.438 0 01-.619-.619l2.188-2.187a.435.435 0 01.618 0 .435.435 0 010 .619z"/><path d="M13.233 3.66l-.001-.01a.164.164 0 00-.002-.012l-.003-.01-.002-.01-.004-.01c0-.004-.002-.007-.003-.01l-.005-.01-.004-.01-.006-.009-.005-.01-.007-.008-.006-.009a.234.234 0 00-.013-.014l-.002-.002L10.327.683a.229.229 0 00-.052-.039h-.002a.215.215 0 00-.025-.011L10.243.63a.216.216 0 00-.028-.008h-.001a.22.22 0 00-.035-.004H2.953a.657.657 0 00-.656.656v9.406a.219.219 0 10.437 0V1.275a.22.22 0 01.22-.219h7v2.188c0 .361.293.656.655.656h1.313a.219.219 0 100-.438h-1.313a.22.22 0 01-.218-.218V1.365l2.406 2.407v10.19a.22.22 0 01-.219.22H3.172a.219.219 0 100 .437h9.406a.657.657 0 00.656-.657V3.66z"/><path d="M9.734 7.619a.219.219 0 00-.218-.22H5.14a.219.219 0 000 .438h4.375c.12 0 .218-.098.218-.218zm.219.875H5.797a.219.219 0 000 .437h4.156a.219.219 0 000-.437zm-4.156-1.75h3.281a.219.219 0 000-.438H5.797a.219.219 0 000 .438z"/></g><defs><clipPath id="clip0_504_10762"><path fill="#fff" transform="translate(0 .619)" d="M0 0h14v14H0z"/></clipPath></defs></svg>