<svg width="14" height="15" fill="none" xmlns="http://www.w3.org/2000/svg"><g clip-path="url(#clip0_504_10779)" fill="#000"><path d="M5.761 2.46H1.63a.205.205 0 100 .411h4.13a.205.205 0 100-.41zm0 1.351H1.63a.205.205 0 100 .41h4.13a.205.205 0 100-.41zm4.659 6.804v-1.01c.348.024.477.184.597.184.149 0 .219-.19.219-.284 0-.244-.478-.349-.817-.359v-.134c0-.06-.075-.115-.15-.115-.084 0-.144.055-.144.115v.144c-.473.05-.946.299-.946.926 0 .638.498.817.946.976v1.17c-.507-.04-.642-.388-.806-.388-.125 0-.23.164-.23.284 0 .243.419.577 1.036.587v.154c0 .06.06.115.145.115.074 0 .15-.055.15-.115v-.169c.537-.075.905-.413.905-1.025 0-.678-.473-.897-.906-1.056zm-.265-.095c-.264-.1-.478-.204-.478-.487 0-.26.2-.384.478-.419v.906zm.234 1.698v-1.05c.244.104.438.244.438.557 0 .284-.169.443-.438.493z"/><path d="M13.904 10.931a3.692 3.692 0 00-3.687-3.687 3.691 3.691 0 00-3.688 3.687 3.691 3.691 0 003.688 3.688h.053c.016 0 .033 0 .05-.002a3.692 3.692 0 003.584-3.686zm-3.594 3.276h-.003l-.09.002a3.28 3.28 0 01-3.278-3.278 3.28 3.28 0 013.278-3.277 3.28 3.28 0 013.277 3.277 3.28 3.28 0 01-3.184 3.276z"/><path d="M10.217 8.037a2.898 2.898 0 00-2.895 2.894 2.898 2.898 0 002.895 2.895 2.898 2.898 0 002.895-2.895 2.898 2.898 0 00-2.895-2.894zm0 5.38a2.487 2.487 0 01-2.485-2.486 2.488 2.488 0 012.485-2.484 2.488 2.488 0 012.485 2.485 2.488 2.488 0 01-2.485 2.484z"/><path d="M7.684 14.209H1.027a.52.52 0 01-.52-.52V1.549a.52.52 0 01.52-.52h6.569V3.47c0 .415.337.752.752.752h2.44v2.336a.205.205 0 10.41 0v-2.54a.205.205 0 00-.06-.146L7.946.68a.205.205 0 00-.145-.06H1.027a.93.93 0 00-.93.929V13.69a.93.93 0 00.93.929h6.657a.205.205 0 100-.41zm.322-10.74V1.32l2.492 2.492h-2.15a.342.342 0 01-.342-.342z"/></g><defs><clipPath id="clip0_504_10779"><path fill="#fff" transform="translate(0 .619)" d="M0 0h14v14H0z"/></clipPath></defs></svg>