<svg width="1728" height="287" fill="none" xmlns="http://www.w3.org/2000/svg"><path d="M1684.1 227.548c-.13.036-.27.067-.41.098-39.94 9.894-89.23 10.37-131.8 15.175-11.77 1.333-23.57 3.521-35.87 4.802-19.27 2-53.51 9.995-73.88 6.164-3.49-.653-4.06-2.767-8.08-3.542-9.96-1.907-25.75-.509-36.08-.682-31.17-.515-71.04-1.484-101.19 2.914-7.71 1.127-8.88 2.091-14.75 4.321-13.4 5.082-27.11 8.436-43.24 10.619-47.52 6.42-90.79 5.128-138.41.028-28.89-3.093-58.04 1.773-86.51 3.938-37.39 2.843-75.785 3.124-111.443-4.784-27.044-5.999-50.237-7.768-80.002-6.249-39.635 2.018-79.65 13.324-119.559 11.139-.505-.024-.74-.366-.378-.551.006 0 .011-.005.017-.011.318-.164.181-.461-.253-.533-22.903-4.076-53.536-3.067-77.326-5.041-13.879-1.154-59.269-3.362-72.317-11.91-6.824-4.472-16.472-7.486-26.981-8.676-24.827-2.819-52.098-3.171-75.967-5.251-15.188-1.325-28.306-3.885-41.76-6.102-49.176-8.112-121.307 7.552-160.589-14.111-23.249-12.825-63.779-11.764-95.544-14.366-47.487-3.887-95.072-4.59-142.636-7.699-16.765-1.093-34.12-3.477-51.117-4.634l.326-21.582 117.801 1.782c4.383 1.026 8.463 2.282 12.108 3.842 5.1 2.188 6.536 4.768 10.918 6.896 12.039 5.838 33.793 4.154 48.262 4.128 23.852-.049 47.431-2.13 71.297-1.992 6.303.035 16.448-.641 21.1 1.649 2.334 1.154 2.888 5.215 4.883 6.805 6.088 4.853 17.366 7.423 27.478 9.332 11.132 2.105 23.641 1.694 34.22 4.38 2.564.655 2.889 2.203 4.982 2.731 16.061 4.077 38.236 4.865 55.568 6.213 22.345 1.739 44.993 3.969 67.408 4.701 27.855.912 62.217 2.048 88.116-2.643.382-.071.511-.309.279-.487-.032-.028-.07-.056-.102-.083-5.293-4.182-.804-9.83 8.36-10.765 21.098-2.157 44.597-1.497 65.325-3.359 15.529-1.396 31.275-3.454 47.018-4.667 18.294-1.408 47.376-6.384 64.979-1.678 14.8 3.954 20.933 16.635 26.338 24.199 5.842 8.188 5.205 14.303 22.683 15.402 22.986 1.444 42.275-5.611 63.321-7.605 13.044-1.237 27.72 1.565 40.414 2.607 16.635 1.37 38.404.161 50.284 8.233 10.356 7.034 5.017 7.69 27.94 7.54 30.251-.191 60.614-4.586 89.329-8.891 17.75-2.661 36.4-4.533 54.75-6.606 21.97-2.482 52.95-9.42 75.94-5.647 10.42 1.712 18.13 7.288 27.68 9.99 11.87 3.371 30.64 3.338 43.83 2.654 18.25-.945 36.83-5.006 53.44-8.769 8.17-1.845 21.66-5.557 31.11-4.105 3.67.563 2.87 1.925 6.25 2.707 38.04 8.778 86.4.772 124.61-3.171 16.13-1.67 31.9-3.821 48.3-4.745 7.83-.438 15.63-1.536 23.47-2.323 6.65-.669 13.36.491 18.71 2.77 3.3 1.403 12.57.217 16.7-.222 17.29-1.849 33.58-6.604 49.17-11.271 6.83-2.046 34.88-9.448 60.9-13.761l20.62.312-.16 10.518c-1.75.917-3.2 1.882-4.21 2.881-3.98 3.927-3.21 12.796 3.92 16.253.16.084.32.157.49.231.35.147.3.44-.1.538l.02.022zM1938 0v34.77c-9.17 2.193-18.14 4.623-27.95 6.517-40.5 7.822-83.02 13.572-125.38 18.013-52.97 5.555-107.31 8.473-158.6 17.841-49.23 8.991-94.16 31.724-147.4 32.553-34.98.542-64.7-5.805-98.74-7.505-34.38-1.712-72.23.877-105.5 5.379-35.69 4.83-67.07 9.984-104.2 8.997-25.27-.67-49.6-1.084-74.91.652-37.22 2.558-71.26 10.964-109.003 10.964-18.004 0-48.514.536-63.41-5.513-11.057-4.483 1.944-5.902-14.45-7.51-32.608-3.204-72.758.371-105.416 2.205-68.213 3.831-134.13 8.071-203.043 8.077-89.016.006-179.077 7.401-267.969 3.344-21.49-.981-62.357 1.036-76.888-8.12-4.16-2.625 1.901-3.441-5.113-5.494-6.854-2.01-25.706 0-33.624 0-45.554 0-91.616 1.072-137.09-.152-26.269-.707-53.076-4.843-79.314-6.25V89.221c28.677 4.495 61.756 4.586 91.127 5.232 58.326 1.273 115.024-.798 173.128-3.271 27.34-1.163 55.07-2.09 82.496-2.692 10.853-.238 36.088-2.443 46.502-.086 10.506 2.382 7.435 6.61 13.354 10.83 9.064 6.464 25.222 7.042 38.96 7.024 26.535-.03 52.953-.31 79.401-.682 15.49-.219 27.309 2.723 41.487 4.776 37.252 5.403 76.794-1.219 113.52-5.659 44.978-5.434 86.031-11.08 132.285-9.935 57.689 1.431 115.13-2.12 172.657-.731 2.811 12.042 53.973 7.431 68.153 7.431 33.04.006 66.7-2.168 98.5-6.877 41.02-6.08 80.68-12.018 122.89-15.947 22.04-2.053 42.13-.226 63.99 1.035 22.37 1.298 46.1-1.047 68.18 1.188 25.4 2.565 50.68 4.72 76.37.207 33.83-5.945 61.78-21.685 96.2-28.684 39.03-7.937 79.3-7.224 119.72-9.862 20.46-1.334 42.57-6.89 61.57-11.074 43.72-9.649 86.27-19.986 132.25-26.297 13.82-1.894 30.45-3.021 45.25-5.135L1938 0z" fill="#FFF4EC"/></svg>