<svg width="14" height="14" fill="none" xmlns="http://www.w3.org/2000/svg"><path fill-rule="evenodd" clip-rule="evenodd" d="M7 .73a2.77 2.77 0 100 5.54A2.77 2.77 0 007 .73zM5.106 3.5a1.896 1.896 0 113.792 0 1.896 1.896 0 01-3.792 0z" fill="url(#paint0_linear_504_7199)"/><path fill-rule="evenodd" clip-rule="evenodd" d="M7 7.146c-1.349 0-2.592.307-3.514.825-.907.51-1.59 1.285-1.59 2.238v.06c0 .677-.001 1.527.745 2.135.367.3.881.512 1.575.652.696.141 1.603.215 2.785.215 1.181 0 2.088-.074 2.784-.215.694-.14 1.208-.353 1.575-.652.746-.607.746-1.458.745-2.136v-.06c0-.952-.682-1.726-1.59-2.237-.921-.518-2.165-.825-3.514-.825zM2.773 10.21c0-.497.362-1.036 1.143-1.475.768-.432 1.858-.713 3.086-.713 1.227 0 2.317.281 3.085.713.781.44 1.144.978 1.144 1.475 0 .763-.024 1.192-.422 1.517-.216.176-.578.347-1.196.473-.617.124-1.46.197-2.611.197-1.152 0-1.995-.073-2.611-.197-.619-.126-.98-.297-1.196-.473-.399-.325-.422-.755-.422-1.517z" fill="url(#paint1_linear_504_7199)"/><defs><linearGradient id="paint0_linear_504_7199" x1="1.896" y1=".729" x2="1.896" y2="13.271" gradientUnits="userSpaceOnUse"><stop stop-color="#FCBC5D"/><stop offset="1" stop-color="#F27243"/></linearGradient><linearGradient id="paint1_linear_504_7199" x1="1.896" y1=".729" x2="1.896" y2="13.271" gradientUnits="userSpaceOnUse"><stop stop-color="#FCBC5D"/><stop offset="1" stop-color="#F27243"/></linearGradient></defs></svg>