<svg width="37" height="36" fill="none" xmlns="http://www.w3.org/2000/svg"><path d="M13.133 30.927C15.767 32.31 17.083 33 18.5 33V18L4.457 10.61l-.06.1C3.5 12.232 3.5 14.125 3.5 17.913v.175c0 3.787 0 5.681.896 7.203.896 1.522 2.51 2.369 5.737 4.062l3 1.574z" fill="#fff"/><path opacity=".7" d="M26.867 6.647l-3-1.574C21.233 3.691 19.917 3 18.5 3c-1.416 0-2.733.691-5.367 2.073l-3 1.574C6.978 8.303 5.365 9.15 4.457 10.61L18.5 18l14.043-7.391c-.908-1.46-2.52-2.306-5.676-3.962z" fill="#fff"/><path opacity=".5" d="M32.604 10.71a5.068 5.068 0 00-.061-.1L18.5 18v15c1.416 0 2.733-.69 5.366-2.073l3-1.574c3.228-1.694 4.842-2.54 5.738-4.062.896-1.522.896-3.416.896-7.203v-.175c0-3.788 0-5.681-.896-7.203z" fill="#fff"/><path d="M9.984 6.725c.05-.025.099-.051.149-.078l2.24-1.175 13.651 7.508 6.036-3.018c.206.234.386.48.543.748.225.38.393.785.52 1.237l-5.998 2.998V19.5a1.125 1.125 0 01-2.25 0v-3.43l-5.25 2.625v14.161A4.593 4.593 0 0118.5 33c-.374 0-.74-.048-1.125-.144v-14.16l-13.498-6.75c.126-.451.294-.855.519-1.236.157-.268.337-.514.543-.748l13.56 6.78 5.08-2.54L9.984 6.726z" fill="#fff"/></svg>