<svg width="36" height="36" fill="none" xmlns="http://www.w3.org/2000/svg"><path opacity=".5" d="M21.834 23.322l-.683.719s-1.624 1.71-6.056-2.957c-4.433-4.667-2.809-6.376-2.809-6.376l.43-.453c1.06-1.116 1.16-2.908.235-4.215L11.06 7.364c-1.145-1.618-3.356-1.832-4.668-.451L4.038 9.392c-.65.684-1.087 1.572-1.034 2.557.136 2.52 1.212 7.94 7.219 14.264 6.37 6.706 12.347 6.973 14.791 6.732.774-.077 1.446-.494 1.988-1.064l2.13-2.243c1.439-1.515 1.033-4.11-.807-5.17l-2.866-1.65c-1.208-.695-2.68-.49-3.625.503z" fill="#fff"/><path d="M25.5 18a7.5 7.5 0 10-6.718-4.16c.134.267.178.572.1.86l-.446 1.67a.975.975 0 001.194 1.194l1.67-.447c.288-.077.593-.033.86.1A7.471 7.471 0 0025.5 18z" fill="#fff"/></svg>