<svg width="36" height="36" fill="none" xmlns="http://www.w3.org/2000/svg"><path opacity=".5" d="M18 33c8.284 0 15-6.716 15-15 0-8.284-6.716-15-15-15C9.716 3 3 9.716 3 18c0 8.284 6.716 15 15 15z" fill="#fff"/><path d="M20.888 21.452c.368-.286.701-.62 1.368-1.286l8.31-8.31c.201-.202.11-.548-.16-.641a9.098 9.098 0 01-3.45-2.173 9.1 9.1 0 01-2.173-3.45c-.093-.27-.44-.361-.64-.16l-8.31 8.31c-.667.667-1 1-1.287 1.368a7.565 7.565 0 00-.865 1.399c-.2.42-.35.868-.648 1.762l-.385 1.156-.612 1.837-.575 1.723a1.225 1.225 0 001.55 1.55l1.723-.575 1.837-.612 1.156-.386c.894-.297 1.341-.447 1.762-.647a7.564 7.564 0 001.4-.865zm12.28-12.198a4.542 4.542 0 10-6.423-6.424l-.267.267a1.1 1.1 0 00-.31.977c.04.226.115.556.252.95.273.788.79 1.822 1.761 2.793a7.365 7.365 0 002.794 1.762c.394.136.724.211.95.252a1.1 1.1 0 00.976-.31l.267-.267z" fill="#fff"/></svg>