<svg width="32" height="32" fill="none" xmlns="http://www.w3.org/2000/svg"><rect width="32" height="32" rx="16" fill="url(#paint0_linear_504_11537)"/><path fill-rule="evenodd" clip-rule="evenodd" d="M25 11.66V12a4 4 0 01-1.18 2.84L21 17.67a1.35 1.35 0 01-1.9 0l-.1-.11a.5.5 0 010-.7l3.44-3.44A2 2 0 0023 12v-.34a2 2 0 00-.59-1.42l-.65-.65A2 2 0 0020.34 9H20a2 2 0 00-1.42.59L15.14 13a.5.5 0 01-.7 0l-.11-.11a1.35 1.35 0 010-1.9l2.83-2.84A4 4 0 0120 7h.34a4 4 0 012.83 1.17l.66.66A4 4 0 0125 11.66zm-12.35 6.28l5.29-5.29a.5.5 0 01.71 0l.7.7a.5.5 0 010 .71l-5.29 5.29a.5.5 0 01-.71 0l-.7-.7a.5.5 0 010-.71zM17.56 19a.5.5 0 00-.7 0l-3.43 3.41A2 2 0 0112 23h-.34a2 2 0 01-1.42-.59l-.65-.65A2 2 0 019 20.34V20a2 2 0 01.59-1.42l3.42-3.44a.5.5 0 000-.7l-.11-.11a1.35 1.35 0 00-1.9 0l-2.82 2.83A4 4 0 007 20v.35a4 4 0 001.17 2.82l.66.66A4 4 0 0011.66 25H12a4 4 0 002.82-1.14l2.85-2.85a1.35 1.35 0 000-1.9l-.11-.11z" fill="#fff"/><defs><linearGradient id="paint0_linear_504_11537" x1="0" y1="0" x2="31.75" y2=".033" gradientUnits="userSpaceOnUse"><stop offset=".351" stop-color="#FCBC5D"/><stop offset="1" stop-color="#F27243"/></linearGradient></defs></svg>