<svg width="24" height="24" fill="none" xmlns="http://www.w3.org/2000/svg"><path d="M12 24c6.627 0 12-5.373 12-12S18.627 0 12 0 0 5.373 0 12s5.373 12 12 12z" fill="#0068FF"/><path opacity=".12" fill-rule="evenodd" clip-rule="evenodd" d="M23.55 12.3L4.875 19.764l3.262 3.488c1.163.375 2.4.6 3.675.6 6.45 0 11.663-5.138 11.738-11.55z" fill="url(#paint0_linear_504_9821)"/><path fill-rule="evenodd" clip-rule="evenodd" d="M20.362 20.1C22.35 18 23.7 15.227 23.7 12.114 23.7 5.588 18.412.301 11.887.301 9.3.3 7.05 1.276 5.1 2.663c-2.25 4.2-2.138 10.388.637 14.1v.038c.525.75 0 2.1-.75 2.85-.112.112-.075.187.113.225 1.087.112 2.475-.188 3.45-.675 3.337 1.837 7.95 2.1 11.812.9z" fill="#fff"/><path d="M11.025 9H7.2v.825h2.663L7.238 13.05a.748.748 0 00-.15.487v.225h3.6c.187 0 .337-.15.337-.337v-.45H8.25L10.688 9.9l.15-.15v-.037a.944.944 0 00.187-.6V9zm4.875 4.725h.525V9H15.6v4.463c.037.15.15.262.3.262zm-2.812-3.675a1.88 1.88 0 00-1.875 1.876c0 1.05.825 1.875 1.875 1.875s1.875-.825 1.875-1.875-.825-1.875-1.875-1.875zm0 2.963a1.088 1.088 0 111.087-1.087c0 .6-.45 1.087-1.087 1.087zm5.775-3.001c-1.05 0-1.875.825-1.875 1.875s.825 1.875 1.875 1.875 1.875-.825 1.875-1.875a1.88 1.88 0 00-1.875-1.875zm0 3a1.088 1.088 0 111.088-1.088c0 .563-.488 1.088-1.088 1.088z" fill="#0068FF"/><path d="M14.513 13.725h.45v-3.6h-.75v3.262c0 .188.15.338.3.338z" fill="#0068FF"/><defs><linearGradient id="paint0_linear_504_9821" x1="14.111" y1="15.853" x2="15.687" y2="18.392" gradientUnits="userSpaceOnUse"><stop/><stop offset=".938" stop-opacity=".062"/><stop offset="1" stop-opacity="0"/></linearGradient></defs></svg>