<svg width="24" height="24" fill="none" xmlns="http://www.w3.org/2000/svg"><g clip-path="url(#clip0_504_9797)"><path d="M12 24c6.627 0 12-5.373 12-12S18.627 0 12 0 0 5.373 0 12s5.373 12 12 12z" fill="red"/><path d="M15.926 7.486H8.073a2.389 2.389 0 00-2.39 2.39v4.248a2.389 2.389 0 002.39 2.39h7.853a2.39 2.39 0 002.39-2.39V9.877a2.39 2.39 0 00-2.39-2.39zm-5.59 6.45v-3.871L13.663 12l-3.329 1.935z" fill="#fff"/></g><defs><clipPath id="clip0_504_9797"><path fill="#fff" d="M0 0h24v24H0z"/></clipPath></defs></svg>