<svg width="24" height="24" fill="none" xmlns="http://www.w3.org/2000/svg"><g clip-path="url(#clip0_504_9789)"><path d="M24 12c0 6.627-5.372 12-12 12h-.023C5.36 23.988 0 18.618 0 12S5.36.012 11.977 0H12c6.628 0 12 5.371 12 12z" fill="#414141"/><path d="M11.977 0v24C5.36 23.988 0 18.618 0 12S5.36.012 11.977 0z" fill="#414141"/><path d="M18.53 8.679l-.015 2.458a5.924 5.924 0 01-1.42-.19 6.005 6.005 0 01-1.99-.936c0 .251.004.626.004 1.082 0 .607 0 .951-.004 1.318-.01 2.261.046 2.699-.153 3.593a4.667 4.667 0 01-.17.636c-.381 1.064-1.214 1.917-2.063 2.37a4.104 4.104 0 01-.742.306c-1.604.486-3.531.06-4.526-1.123l-.006-.007-.008-.01c-.845-1.02-1.03-2.61-1.047-3.017 0-.052-.004-.103-.004-.103a4.99 4.99 0 01.237-1.639c.171-.547.736-1.69 2.005-2.385a4.384 4.384 0 012.586-.495l-.029 2.488c-.05-.013-1.265-.301-2.063.527-.723.75-.676 1.958-.163 2.642.027.037.056.073.086.106.287.32.65.44.896.524.325.107.667.157 1.01.147a1.85 1.85 0 001.025-.329c.834-.566.946-1.575.95-1.633l-.029-9.744v-.003l1.563-.027h.026l.226-.005a4.756 4.756 0 001.224 2.094 5.022 5.022 0 001.851 1.144h.005c.24.088.487.158.737.21z" fill="#FD2854"/><path d="M17.823 9.791h-.005a5.424 5.424 0 01-2.515-.19 5.356 5.356 0 01-1.574-.822 15.946 15.946 0 010 5.204c-.338 2.025-.55 3.294-1.68 4.106a2.069 2.069 0 01-.072.05c-1.56 1.057-3.741.533-4.54.035l-.012-.007-.022-.014a5.238 5.238 0 01-.738-.591 4.306 4.306 0 01-1.308-3.044 4.613 4.613 0 01.288-1.728c.133-.354.627-1.616 2.005-2.385a4.477 4.477 0 012.893-.49l-.011.592v.004l-.023 1.248a3.771 3.771 0 00-1.319-.073c-.354.043-.702.084-1.072.317a2.15 2.15 0 00-.933 1.332 1.793 1.793 0 00-.047.82c.014.077.118.62.556 1.009.147.13.21.136.424.336.19.178.237.263.41.41a2.125 2.125 0 00.127.098c.095.07.195.132.3.188.433.227 1.209.252 1.778-.025.787-.382 1.216-1.262 1.214-1.785l-.028-9.747h.054l2.414-.014a1.9 1.9 0 00.077.556l.019.06.016.046c.037.098.08.194.13.287l.033.068v.01l.005.011.006.011a.219.219 0 00.01.02l.012.023a11.113 11.113 0 00.157.282l.025.042.039.064.047.075c.184.29.507.78.965 1.149.643.52 1.382.666 1.846.71l.01.436c.017.44.03.878.039 1.316z" fill="#24F6FA"/><path d="M17.83 10.486a5.275 5.275 0 01-3.385-1.072v5.204c-.012.2-.186 2.398-2.172 3.608a4.98 4.98 0 01-.296.165c-1.868.953-3.694.206-3.874.129a2.422 2.422 0 01-.658-.334l-.042-.032c-1.219-.925-1.269-2.809-1.277-3.087a4.99 4.99 0 01.237-1.64c.201-.64.801-1.722 2.005-2.384a4.38 4.38 0 012.166-.532v.004l-.03 1.875c-.127-.034-.906-.23-1.668.249a2.151 2.151 0 00-.933 1.332 1.92 1.92 0 00-.047.819c.067.337.226.65.46.902a2.156 2.156 0 00.64.505l.004.003a1.856 1.856 0 001.992.777 2.21 2.21 0 00.501-.169 1.98 1.98 0 00.525-.363c.598-.575.686-1.371.69-1.42l-.026-9.75.26-.006 1.563-.03h.023l.018.045c.037.087.08.184.13.288l.034.068v.01l.005.011.005.01a.22.22 0 00.011.02.36.36 0 00.012.024c.027.053.059.108.088.164.022.04.045.079.069.118l.025.042.038.063.048.075a5.772 5.772 0 002.815 2.293h.005l.023 1.316.017.7z" fill="#fff"/><path opacity=".17" d="M18.529 8.679l-.015 2.458a5.924 5.924 0 01-1.42-.19 6.003 6.003 0 01-1.99-.936c0 .251.004.626.004 1.082 0 .607 0 .952-.004 1.318-.01 2.261.046 2.699-.153 3.593a4.668 4.668 0 01-.169.636c-.382 1.064-1.215 1.917-2.063 2.37a4.11 4.11 0 01-.742.306V4.64l2.414-.014a1.9 1.9 0 00.077.556l.018.06.227-.004a4.78 4.78 0 00.833 1.655c.121.154.251.3.39.438.644.52 1.383.666 1.847.71l.01.436c.24.085.486.153.736.203z" fill="#000"/></g><defs><clipPath id="clip0_504_9789"><path fill="#fff" d="M0 0h24v24H0z"/></clipPath></defs></svg>