<svg width="32" height="32" fill="none" xmlns="http://www.w3.org/2000/svg"><rect width="32" height="32" rx="16" fill="url(#paint0_linear_504_11539)"/><path fill-rule="evenodd" clip-rule="evenodd" d="M7 16c0-3.595 0-5.393.857-6.687a5.16 5.16 0 011.456-1.456C10.607 7 12.405 7 16 7s5.393 0 6.687.857a5.159 5.159 0 011.456 1.456C25 10.607 25 12.405 25 16s0 5.393-.857 6.687a5.158 5.158 0 01-1.456 1.456C21.393 25 19.595 25 16 25s-5.393 0-6.687-.857a5.159 5.159 0 01-1.456-1.456C7 21.393 7 19.595 7 16zm13.659 0a4.66 4.66 0 11-9.32 0 4.66 4.66 0 019.32 0zm-4.66 3.083a3.083 3.083 0 100-6.166 3.083 3.083 0 000 6.166zm4.844-6.882a1.095 1.095 0 100-2.19 1.095 1.095 0 000 2.19z" fill="#fff"/><defs><linearGradient id="paint0_linear_504_11539" x1="0" y1="0" x2="31.75" y2=".033" gradientUnits="userSpaceOnUse"><stop offset=".351" stop-color="#FCBC5D"/><stop offset="1" stop-color="#F27243"/></linearGradient></defs></svg>