<svg width="26" height="27" fill="none" xmlns="http://www.w3.org/2000/svg"><g clip-path="url(#clip0_504_10707)"><path d="M9.522 19.5c6.038 0 9.341-5.002 9.341-9.333 0-.14 0-.282-.006-.422a6.684 6.684 0 001.64-1.702 6.65 6.65 0 01-1.89.518 3.301 3.301 0 001.447-1.817 6.533 6.533 0 01-2.087.793 3.286 3.286 0 00-5.596 2.994A9.325 9.325 0 015.604 7.1a3.289 3.289 0 001.018 4.383 3.323 3.323 0 01-1.486-.408v.045a3.288 3.288 0 002.632 3.218 3.204 3.204 0 01-.865.115c-.206 0-.412-.019-.614-.057a3.283 3.283 0 003.067 2.277 6.588 6.588 0 01-4.08 1.407 6.315 6.315 0 01-.78-.045A9.343 9.343 0 009.522 19.5z" fill="#fff"/></g><defs><clipPath id="clip0_504_10707"><path fill="#fff" transform="translate(4.996 5.5)" d="M0 0h16v16H0z"/></clipPath></defs></svg>